<?xml version="1.0" encoding="UTF-8" standalone="no"?>
<!-- Created with Inkscape (http://www.inkscape.org/) -->

<svg
   xmlns:dc="http://purl.org/dc/elements/1.1/"
   xmlns:cc="http://creativecommons.org/ns#"
   xmlns:rdf="http://www.w3.org/1999/02/22-rdf-syntax-ns#"
   xmlns:svg="http://www.w3.org/2000/svg"
   xmlns="http://www.w3.org/2000/svg"
   xmlns:sodipodi="http://sodipodi.sourceforge.net/DTD/sodipodi-0.dtd"
   xmlns:inkscape="http://www.inkscape.org/namespaces/inkscape"
   width="182.98442mm"
   height="57.911118mm"
   viewBox="0 0 182.98442 57.911118"
   version="1.1"
   id="svg4742"
   inkscape:version="0.92.3 (2405546, 2018-03-11)"
   sodipodi:docname="logo-full.svg">
  <defs
     id="defs4736">
    <clipPath
       clipPathUnits="userSpaceOnUse"
       id="clipPath4828">
      <path
         style="color:#000000;font-style:normal;font-variant:normal;font-weight:normal;font-stretch:normal;font-size:medium;line-height:normal;font-family:sans-serif;font-variant-ligatures:normal;font-variant-position:normal;font-variant-caps:normal;font-variant-numeric:normal;font-variant-alternates:normal;font-feature-settings:normal;text-indent:0;text-align:start;text-decoration:none;text-decoration-line:none;text-decoration-style:solid;text-decoration-color:#000000;letter-spacing:normal;word-spacing:normal;text-transform:none;writing-mode:lr-tb;direction:ltr;text-orientation:mixed;dominant-baseline:auto;baseline-shift:baseline;text-anchor:start;white-space:normal;shape-padding:0;clip-rule:nonzero;display:inline;overflow:visible;visibility:visible;opacity:1;isolation:auto;mix-blend-mode:normal;color-interpolation:sRGB;color-interpolation-filters:linearRGB;solid-color:#000000;solid-opacity:1;vector-effect:none;fill:#ee0014;fill-opacity:1;fill-rule:evenodd;stroke:none;stroke-width:2.16499996;stroke-linecap:butt;stroke-linejoin:round;stroke-miterlimit:4;stroke-dasharray:none;stroke-dashoffset:0;stroke-opacity:1;color-rendering:auto;image-rendering:auto;shape-rendering:auto;text-rendering:auto;enable-background:accumulate"
         d="m 105.40278,16.143658 c -0.47089,0.0084 -0.8823,0.32036 -1.01757,0.771485 L 91.445755,60.268657 c -0.04393,0.147471 -0.05591,0.302612 -0.03516,0.455081 0,0 0.08767,0.558842 0.41211,1.199216 0.324437,0.640376 0.901165,1.455309 1.878904,2.238282 1.95548,1.56595 5.459577,2.978507 11.720701,2.978515 6.26113,1.6e-5 9.76718,-1.412557 11.72266,-2.978515 0.97774,-0.782979 1.55447,-1.597901 1.8789,-2.238282 0.32444,-0.640379 0.41211,-1.199216 0.41211,-1.199216 0.0208,-0.152469 0.009,-0.30761 -0.0352,-0.455081 l -12.9394,-43.353514 c -0.13962,-0.465678 -0.57253,-0.78118 -1.0586,-0.771485 z"
         id="path4830"
         inkscape:connector-curvature="0"
         sodipodi:nodetypes="ccccssssscccc" />
    </clipPath>
    <clipPath
       clipPathUnits="userSpaceOnUse"
       id="clipPath4824">
      <path
         style="color:#000000;font-style:normal;font-variant:normal;font-weight:normal;font-stretch:normal;font-size:medium;line-height:normal;font-family:sans-serif;font-variant-ligatures:normal;font-variant-position:normal;font-variant-caps:normal;font-variant-numeric:normal;font-variant-alternates:normal;font-feature-settings:normal;text-indent:0;text-align:start;text-decoration:none;text-decoration-line:none;text-decoration-style:solid;text-decoration-color:#000000;letter-spacing:normal;word-spacing:normal;text-transform:none;writing-mode:lr-tb;direction:ltr;text-orientation:mixed;dominant-baseline:auto;baseline-shift:baseline;text-anchor:start;white-space:normal;shape-padding:0;clip-rule:nonzero;display:inline;overflow:visible;visibility:visible;opacity:1;isolation:auto;mix-blend-mode:normal;color-interpolation:sRGB;color-interpolation-filters:linearRGB;solid-color:#000000;solid-opacity:1;vector-effect:none;fill:#ee0014;fill-opacity:1;fill-rule:evenodd;stroke:none;stroke-width:2.16499996;stroke-linecap:butt;stroke-linejoin:round;stroke-miterlimit:4;stroke-dasharray:none;stroke-dashoffset:0;stroke-opacity:1;color-rendering:auto;image-rendering:auto;shape-rendering:auto;text-rendering:auto;enable-background:accumulate"
         d="m 20.368198,26.932301 c -0.32703,0.338909 -0.397352,0.85041 -0.174008,1.265052 l 21.505987,39.805141 c 0.07321,0.135342 0.174443,0.253515 0.296928,0.346653 0,0 0.457153,0.333169 1.13938,0.556568 0.682226,0.223403 1.666279,0.391839 2.91129,0.254119 2.490027,-0.275439 5.966626,-1.754381 10.393917,-6.18166 4.427298,-4.427276 5.907609,-7.905267 6.183043,-10.3953 0.137718,-1.245017 -0.03071,-2.229062 -0.254121,-2.911288 -0.223402,-0.68223 -0.556568,-1.13938 -0.556568,-1.13938 -0.09311,-0.122517 -0.211152,-0.223874 -0.346681,-0.2969 L 21.662264,26.72928 c -0.428011,-0.230558 -0.957217,-0.147538 -1.294066,0.203021 z"
         id="path4826"
         inkscape:connector-curvature="0"
         sodipodi:nodetypes="ccccssssscccc" />
    </clipPath>
    <clipPath
       clipPathUnits="userSpaceOnUse"
       id="clipPath4824-2">
      <path
         style="color:#000000;font-style:normal;font-variant:normal;font-weight:normal;font-stretch:normal;font-size:medium;line-height:normal;font-family:sans-serif;font-variant-ligatures:normal;font-variant-position:normal;font-variant-caps:normal;font-variant-numeric:normal;font-variant-alternates:normal;font-feature-settings:normal;text-indent:0;text-align:start;text-decoration:none;text-decoration-line:none;text-decoration-style:solid;text-decoration-color:#000000;letter-spacing:normal;word-spacing:normal;text-transform:none;writing-mode:lr-tb;direction:ltr;text-orientation:mixed;dominant-baseline:auto;baseline-shift:baseline;text-anchor:start;white-space:normal;shape-padding:0;clip-rule:nonzero;display:inline;overflow:visible;visibility:visible;opacity:1;isolation:auto;mix-blend-mode:normal;color-interpolation:sRGB;color-interpolation-filters:linearRGB;solid-color:#000000;solid-opacity:1;vector-effect:none;fill:#ee0014;fill-opacity:1;fill-rule:evenodd;stroke:none;stroke-width:2.16499996;stroke-linecap:butt;stroke-linejoin:round;stroke-miterlimit:4;stroke-dasharray:none;stroke-dashoffset:0;stroke-opacity:1;color-rendering:auto;image-rendering:auto;shape-rendering:auto;text-rendering:auto;enable-background:accumulate"
         d="m 20.368198,26.932301 c -0.32703,0.338909 -0.397352,0.85041 -0.174008,1.265052 l 21.505987,39.805141 c 0.07321,0.135342 0.174443,0.253515 0.296928,0.346653 0,0 0.457153,0.333169 1.13938,0.556568 0.682226,0.223403 1.666279,0.391839 2.91129,0.254119 2.490027,-0.275439 5.966626,-1.754381 10.393917,-6.18166 4.427298,-4.427276 5.907609,-7.905267 6.183043,-10.3953 0.137718,-1.245017 -0.03071,-2.229062 -0.254121,-2.911288 -0.223402,-0.68223 -0.556568,-1.13938 -0.556568,-1.13938 -0.09311,-0.122517 -0.211152,-0.223874 -0.346681,-0.2969 L 21.662264,26.72928 c -0.428011,-0.230558 -0.957217,-0.147538 -1.294066,0.203021 z"
         id="path4826-1"
         inkscape:connector-curvature="0"
         sodipodi:nodetypes="ccccssssscccc" />
    </clipPath>
    <filter
       style="color-interpolation-filters:sRGB"
       id="filter5889"
       inkscape:label="filter0" />
  </defs>
  <sodipodi:namedview
     id="base"
     pagecolor="#ffffff"
     bordercolor="#666666"
     borderopacity="1.0"
     inkscape:pageopacity="0.0"
     inkscape:pageshadow="2"
     inkscape:zoom="2.025903"
     inkscape:cx="391.82468"
     inkscape:cy="136.29759"
     inkscape:document-units="mm"
     inkscape:current-layer="text5435"
     showgrid="false"
     inkscape:window-width="1680"
     inkscape:window-height="988"
     inkscape:window-x="-8"
     inkscape:window-y="-8"
     inkscape:window-maximized="1"
     fit-margin-top="0"
     fit-margin-left="0"
     fit-margin-right="0"
     fit-margin-bottom="0" />
  <metadata
     id="metadata4739">
    <rdf:RDF>
      <cc:Work
         rdf:about="">
        <dc:format>image/svg+xml</dc:format>
        <dc:type
           rdf:resource="http://purl.org/dc/dcmitype/StillImage" />
        <dc:title></dc:title>
      </cc:Work>
    </rdf:RDF>
  </metadata>
  <g
     inkscape:label="Layer 1"
     inkscape:groupmode="layer"
     id="layer1"
     transform="translate(-220.03887,-232.17142)">
    <g
       style="display:inline"
       id="g5403"
       transform="rotate(-40,460.03978,-33.699874)">
      <rect
         ry="0"
         rx="0"
         y="5.0831356"
         x="76.665634"
         height="64.634209"
         width="57.452663"
         id="rect5345"
         style="display:inline;fill:#eebb8c;fill-opacity:1;stroke:#f7ddc5;stroke-width:1.16499996;stroke-linejoin:miter;stroke-miterlimit:4;stroke-dasharray:none;stroke-opacity:1"
         clip-path="url(#clipPath4828)" />
      <g
         clip-path="url(#clipPath4824)"
         id="g5401"
         transform="rotate(45,75.908533,124.1838)"
         style="display:inline;stroke:#f7ddc5;stroke-opacity:1">
        <g
           transform="rotate(-15,26.566448,36.632501)"
           id="g5371"
           style="display:inline;stroke:#f7ddc5;stroke-opacity:1">
          <path
             style="fill:none;fill-rule:evenodd;stroke:#f7ddc5;stroke-width:1;stroke-linecap:butt;stroke-linejoin:miter;stroke-miterlimit:4;stroke-dasharray:none;stroke-opacity:1"
             d="m 59.949104,20.456232 c 0,0 -9.334707,7.465334 -26.071015,7.486253 C 17.141781,27.963404 7.7884382,20.521428 7.7884382,20.521428"
             id="path5347"
             inkscape:connector-curvature="0"
             sodipodi:nodetypes="czc"
             inkscape:tile-cx="82.565404"
             inkscape:tile-cy="60.301849"
             inkscape:tile-w="0.99999998"
             inkscape:tile-h="52.160707"
             inkscape:tile-x0="82.065404"
             inkscape:tile-y0="34.221495" />
          <path
             style="fill:none;fill-rule:evenodd;stroke:#f7ddc5;stroke-width:1;stroke-linecap:butt;stroke-linejoin:miter;stroke-miterlimit:4;stroke-dasharray:none;stroke-opacity:1"
             d="m 59.954103,24.456229 c 0,0 -9.334707,7.465333 -26.071015,7.486252 C 17.14678,31.9634 7.7934375,24.521425 7.7934375,24.521425"
             id="path5349"
             inkscape:connector-curvature="0"
             sodipodi:nodetypes="czc"
             inkscape:tile-x0="82.065404"
             inkscape:tile-y0="34.221495" />
          <path
             style="fill:none;fill-rule:evenodd;stroke:#f7ddc5;stroke-width:1;stroke-linecap:butt;stroke-linejoin:miter;stroke-miterlimit:4;stroke-dasharray:none;stroke-opacity:1"
             d="m 59.959104,28.456226 c 0,0 -9.334707,7.465334 -26.071015,7.486253 C 17.151781,35.963398 7.7984377,28.521422 7.7984377,28.521422"
             id="path5351"
             inkscape:connector-curvature="0"
             sodipodi:nodetypes="czc"
             inkscape:tile-x0="82.065404"
             inkscape:tile-y0="34.221495" />
          <path
             style="fill:none;fill-rule:evenodd;stroke:#f7ddc5;stroke-width:1;stroke-linecap:butt;stroke-linejoin:miter;stroke-miterlimit:4;stroke-dasharray:none;stroke-opacity:1"
             d="m 59.964103,32.456223 c 0,0 -9.334707,7.465334 -26.071015,7.486253 C 17.15678,39.963395 7.8034372,32.521419 7.8034372,32.521419"
             id="path5353"
             inkscape:connector-curvature="0"
             sodipodi:nodetypes="czc"
             inkscape:tile-x0="82.065404"
             inkscape:tile-y0="34.221495" />
          <path
             style="fill:none;fill-rule:evenodd;stroke:#f7ddc5;stroke-width:1;stroke-linecap:butt;stroke-linejoin:miter;stroke-miterlimit:4;stroke-dasharray:none;stroke-opacity:1"
             d="m 59.969103,36.45622 c 0,0 -9.334707,7.465334 -26.071015,7.486253 C 17.16178,43.963392 7.8084369,36.521416 7.8084369,36.521416"
             id="path5355"
             inkscape:connector-curvature="0"
             sodipodi:nodetypes="czc"
             inkscape:tile-x0="82.065404"
             inkscape:tile-y0="34.221495" />
          <path
             style="fill:none;fill-rule:evenodd;stroke:#f7ddc5;stroke-width:1;stroke-linecap:butt;stroke-linejoin:miter;stroke-miterlimit:4;stroke-dasharray:none;stroke-opacity:1"
             d="m 59.974102,40.456216 c 0,0 -9.334707,7.465334 -26.071015,7.486253 C 17.166779,47.963388 7.8134365,40.521412 7.8134365,40.521412"
             id="path5357"
             inkscape:connector-curvature="0"
             sodipodi:nodetypes="czc"
             inkscape:tile-x0="82.065404"
             inkscape:tile-y0="34.221495" />
          <path
             style="fill:none;fill-rule:evenodd;stroke:#f7ddc5;stroke-width:1;stroke-linecap:butt;stroke-linejoin:miter;stroke-miterlimit:4;stroke-dasharray:none;stroke-opacity:1"
             d="m 59.979102,44.456213 c 0,0 -9.334707,7.465334 -26.071015,7.486253 C 17.171779,51.963385 7.8184362,44.521409 7.8184362,44.521409"
             id="path5359"
             inkscape:connector-curvature="0"
             sodipodi:nodetypes="czc"
             inkscape:tile-x0="82.065404"
             inkscape:tile-y0="34.221495" />
          <path
             style="fill:none;fill-rule:evenodd;stroke:#f7ddc5;stroke-width:1;stroke-linecap:butt;stroke-linejoin:miter;stroke-miterlimit:4;stroke-dasharray:none;stroke-opacity:1"
             d="m 59.984102,48.456208 c 0,0 -9.334707,7.465334 -26.071015,7.486253 C 17.176779,55.96338 7.8234359,48.521404 7.8234359,48.521404"
             id="path5361"
             inkscape:connector-curvature="0"
             sodipodi:nodetypes="czc"
             inkscape:tile-x0="82.065404"
             inkscape:tile-y0="34.221495" />
          <path
             style="fill:none;fill-rule:evenodd;stroke:#f7ddc5;stroke-width:1;stroke-linecap:butt;stroke-linejoin:miter;stroke-miterlimit:4;stroke-dasharray:none;stroke-opacity:1"
             d="m 59.989101,52.456205 c 0,0 -9.334707,7.465334 -26.071015,7.486253 C 17.181778,59.963377 7.8284356,52.521401 7.8284356,52.521401"
             id="path5363"
             inkscape:connector-curvature="0"
             sodipodi:nodetypes="czc"
             inkscape:tile-x0="82.065404"
             inkscape:tile-y0="34.221495" />
          <path
             style="fill:none;fill-rule:evenodd;stroke:#f7ddc5;stroke-width:1;stroke-linecap:butt;stroke-linejoin:miter;stroke-miterlimit:4;stroke-dasharray:none;stroke-opacity:1"
             d="m 59.994102,56.456202 c 0,0 -9.334707,7.465334 -26.071015,7.486253 C 17.186779,63.963374 7.8334357,56.521398 7.8334357,56.521398"
             id="path5365"
             inkscape:connector-curvature="0"
             sodipodi:nodetypes="czc"
             inkscape:tile-x0="82.065404"
             inkscape:tile-y0="34.221495" />
          <path
             style="fill:none;fill-rule:evenodd;stroke:#f7ddc5;stroke-width:1;stroke-linecap:butt;stroke-linejoin:miter;stroke-miterlimit:4;stroke-dasharray:none;stroke-opacity:1"
             d="m 59.999101,60.456199 c 0,0 -9.334707,7.465334 -26.071015,7.486253 C 17.191778,67.963371 7.8384354,60.521395 7.8384354,60.521395"
             id="path5367"
             inkscape:connector-curvature="0"
             sodipodi:nodetypes="czc"
             inkscape:tile-x0="82.065404"
             inkscape:tile-y0="34.221495" />
          <path
             style="fill:none;fill-rule:evenodd;stroke:#f7ddc5;stroke-width:1;stroke-linecap:butt;stroke-linejoin:miter;stroke-miterlimit:4;stroke-dasharray:none;stroke-opacity:1"
             d="m 60.004101,64.456196 c 0,0 -9.334707,7.465334 -26.071015,7.486253 C 17.196778,71.963368 7.8434351,64.521392 7.8434351,64.521392"
             id="path5369"
             inkscape:connector-curvature="0"
             sodipodi:nodetypes="czc"
             inkscape:tile-x0="82.065404"
             inkscape:tile-y0="34.221495" />
        </g>
        <g
           transform="rotate(15,37.661577,42.488324)"
           id="g5399"
           style="display:inline;stroke:#f7ddc5;stroke-opacity:1">
          <path
             style="fill:none;fill-rule:evenodd;stroke:#f7ddc5;stroke-width:1;stroke-linecap:butt;stroke-linejoin:miter;stroke-miterlimit:4;stroke-dasharray:none;stroke-opacity:1"
             d="m 55.863653,16.380981 c 0,0 7.465334,9.334708 7.486251,26.071016 0.02092,16.736308 -7.421059,26.08965 -7.421059,26.08965"
             id="path5373"
             inkscape:connector-curvature="0"
             sodipodi:nodetypes="czc"
             inkscape:tile-x0="82.065404"
             inkscape:tile-y0="34.221495" />
          <path
             inkscape:tile-y0="34.221495"
             inkscape:tile-x0="82.065404"
             sodipodi:nodetypes="czc"
             inkscape:connector-curvature="0"
             id="path5375"
             d="m 55.863653,16.380981 c 0,0 7.465334,9.334708 7.486251,26.071016 0.02092,16.736308 -7.421059,26.08965 -7.421059,26.08965"
             style="fill:none;fill-rule:evenodd;stroke:#f7ddc5;stroke-width:1;stroke-linecap:butt;stroke-linejoin:miter;stroke-miterlimit:4;stroke-dasharray:none;stroke-opacity:1" />
          <path
             inkscape:tile-y0="34.221495"
             inkscape:tile-x0="82.065404"
             sodipodi:nodetypes="czc"
             inkscape:connector-curvature="0"
             id="path5377"
             d="m 51.863656,16.38598 c 0,0 7.465334,9.334708 7.486251,26.071016 0.02092,16.736308 -7.421059,26.08965 -7.421059,26.08965"
             style="fill:none;fill-rule:evenodd;stroke:#f7ddc5;stroke-width:1;stroke-linecap:butt;stroke-linejoin:miter;stroke-miterlimit:4;stroke-dasharray:none;stroke-opacity:1" />
          <path
             inkscape:tile-y0="34.221495"
             inkscape:tile-x0="82.065404"
             sodipodi:nodetypes="czc"
             inkscape:connector-curvature="0"
             id="path5379"
             d="m 47.863659,16.390981 c 0,0 7.465334,9.334708 7.486251,26.071016 0.02092,16.736308 -7.421059,26.08965 -7.421059,26.08965"
             style="fill:none;fill-rule:evenodd;stroke:#f7ddc5;stroke-width:1;stroke-linecap:butt;stroke-linejoin:miter;stroke-miterlimit:4;stroke-dasharray:none;stroke-opacity:1" />
          <path
             inkscape:tile-y0="34.221495"
             inkscape:tile-x0="82.065404"
             sodipodi:nodetypes="czc"
             inkscape:connector-curvature="0"
             id="path5381"
             d="m 43.863663,16.39598 c 0,0 7.465334,9.334708 7.486251,26.071016 0.02092,16.736308 -7.421059,26.08965 -7.421059,26.08965"
             style="fill:none;fill-rule:evenodd;stroke:#f7ddc5;stroke-width:1;stroke-linecap:butt;stroke-linejoin:miter;stroke-miterlimit:4;stroke-dasharray:none;stroke-opacity:1" />
          <path
             inkscape:tile-y0="34.221495"
             inkscape:tile-x0="82.065404"
             sodipodi:nodetypes="czc"
             inkscape:connector-curvature="0"
             id="path5383"
             d="m 39.863665,16.40098 c 0,0 7.465334,9.334708 7.486251,26.071016 0.02092,16.736308 -7.421059,26.08965 -7.421059,26.08965"
             style="fill:none;fill-rule:evenodd;stroke:#f7ddc5;stroke-width:1;stroke-linecap:butt;stroke-linejoin:miter;stroke-miterlimit:4;stroke-dasharray:none;stroke-opacity:1" />
          <path
             inkscape:tile-y0="34.221495"
             inkscape:tile-x0="82.065404"
             sodipodi:nodetypes="czc"
             inkscape:connector-curvature="0"
             id="path5385"
             d="m 35.863669,16.405979 c 0,0 7.465334,9.334708 7.486251,26.071016 0.02092,16.736308 -7.421059,26.08965 -7.421059,26.08965"
             style="fill:none;fill-rule:evenodd;stroke:#f7ddc5;stroke-width:1;stroke-linecap:butt;stroke-linejoin:miter;stroke-miterlimit:4;stroke-dasharray:none;stroke-opacity:1" />
          <path
             inkscape:tile-y0="34.221495"
             inkscape:tile-x0="82.065404"
             sodipodi:nodetypes="czc"
             inkscape:connector-curvature="0"
             id="path5387"
             d="m 31.863672,16.410979 c 0,0 7.465334,9.334708 7.486251,26.071016 0.02092,16.736308 -7.421059,26.08965 -7.421059,26.08965"
             style="fill:none;fill-rule:evenodd;stroke:#f7ddc5;stroke-width:1;stroke-linecap:butt;stroke-linejoin:miter;stroke-miterlimit:4;stroke-dasharray:none;stroke-opacity:1" />
          <path
             inkscape:tile-y0="34.221495"
             inkscape:tile-x0="82.065404"
             sodipodi:nodetypes="czc"
             inkscape:connector-curvature="0"
             id="path5389"
             d="m 27.863677,16.415979 c 0,0 7.465334,9.334708 7.486251,26.071016 0.02092,16.736308 -7.421059,26.08965 -7.421059,26.08965"
             style="fill:none;fill-rule:evenodd;stroke:#f7ddc5;stroke-width:1;stroke-linecap:butt;stroke-linejoin:miter;stroke-miterlimit:4;stroke-dasharray:none;stroke-opacity:1" />
          <path
             inkscape:tile-y0="34.221495"
             inkscape:tile-x0="82.065404"
             sodipodi:nodetypes="czc"
             inkscape:connector-curvature="0"
             id="path5391"
             d="m 23.863679,16.420979 c 0,0 7.465334,9.334708 7.486251,26.071016 0.02092,16.736308 -7.421059,26.08965 -7.421059,26.08965"
             style="fill:none;fill-rule:evenodd;stroke:#f7ddc5;stroke-width:1;stroke-linecap:butt;stroke-linejoin:miter;stroke-miterlimit:4;stroke-dasharray:none;stroke-opacity:1" />
          <path
             inkscape:tile-y0="34.221495"
             inkscape:tile-x0="82.065404"
             sodipodi:nodetypes="czc"
             inkscape:connector-curvature="0"
             id="path5393"
             d="m 19.863683,16.425978 c 0,0 7.465334,9.334708 7.486251,26.071016 0.02092,16.736308 -7.421059,26.08965 -7.421059,26.08965"
             style="fill:none;fill-rule:evenodd;stroke:#f7ddc5;stroke-width:1;stroke-linecap:butt;stroke-linejoin:miter;stroke-miterlimit:4;stroke-dasharray:none;stroke-opacity:1" />
          <path
             inkscape:tile-y0="34.221495"
             inkscape:tile-x0="82.065404"
             sodipodi:nodetypes="czc"
             inkscape:connector-curvature="0"
             id="path5395"
             d="m 15.863686,16.430978 c 0,0 7.465334,9.334708 7.486251,26.071016 0.02092,16.736308 -7.421059,26.08965 -7.421059,26.08965"
             style="fill:none;fill-rule:evenodd;stroke:#f7ddc5;stroke-width:1;stroke-linecap:butt;stroke-linejoin:miter;stroke-miterlimit:4;stroke-dasharray:none;stroke-opacity:1" />
          <path
             inkscape:tile-y0="34.221495"
             inkscape:tile-x0="82.065404"
             sodipodi:nodetypes="czc"
             inkscape:connector-curvature="0"
             id="path5397"
             d="m 11.863689,16.435978 c 0,0 7.465334,9.334708 7.486251,26.071016 0.02092,16.736308 -7.421059,26.08965 -7.421059,26.08965"
             style="fill:none;fill-rule:evenodd;stroke:#f7ddc5;stroke-width:1;stroke-linecap:butt;stroke-linejoin:miter;stroke-miterlimit:4;stroke-dasharray:none;stroke-opacity:1" />
        </g>
      </g>
    </g>
    <path
       sodipodi:nodetypes="cccccccccccccccccccccccccccccccccccccccccccccccccccccccccccccccccccccccccccc"
       inkscape:connector-curvature="0"
       id="path5405"
       d="m 259.84334,257.4871 c -0.22622,-0.0158 -0.45703,0.046 -0.65216,0.16123 -0.0563,0.0281 -0.10571,0.0678 -0.1514,0.11059 -0.12809,0.2161 -0.0693,0.48375 0.0294,0.69919 0.12393,0.27946 0.29825,0.53143 0.4532,0.79375 0.15052,0.24861 0.23372,0.53465 0.2558,0.82372 0.0605,0.57314 0.12244,1.14642 0.17001,1.72082 0.027,0.29394 0.0738,0.59486 -0.0145,0.88367 -0.0714,0.28311 -0.19435,0.54992 -0.29662,0.82269 -0.11634,0.23936 -0.17206,0.51773 -0.36122,0.71468 -0.14984,0.16568 -0.36863,0.22955 -0.58033,0.27079 -0.27975,0.0643 -0.56743,0.0997 -0.85473,0.0951 -0.25307,0.003 -0.52447,-0.12371 -0.59582,-0.38397 -0.0847,-0.19243 -0.14313,-0.42325 -0.33122,-0.54314 -0.15858,-0.0915 -0.40543,-0.0735 -0.52814,0.0641 -0.14503,0.21307 -0.18691,0.4747 -0.28215,0.71054 -0.11372,0.2818 -0.25618,0.55239 -0.34882,0.84233 -0.11053,0.38265 -0.18104,0.77567 -0.25372,1.16685 -0.0653,0.35726 -0.13325,0.71385 -0.20051,1.07074 -0.0647,0.25576 -0.14539,0.50765 -0.25425,0.74827 -0.13478,0.24233 -0.28378,0.47669 -0.44649,0.70125 -0.15901,0.20144 -0.45922,0.28207 -0.69091,0.16278 -0.24867,-0.12546 -0.36867,-0.393 -0.5147,-0.61495 -0.20454,-0.32886 -0.40936,-0.65764 -0.61391,-0.9865 -0.12506,-0.16865 -0.29085,-0.3194 -0.49506,-0.38188 -0.20966,-0.0728 -0.44381,-0.02 -0.62425,0.10179 -0.21053,0.14102 -0.38559,0.32746 -0.57157,0.49814 -0.18612,0.19051 -0.37335,0.41223 -0.39842,0.68885 -0.0325,0.28927 0.0102,0.57948 0.03,0.86817 0.0538,0.56933 0.12515,1.13674 0.19069,1.7048 0.037,0.30726 0.0741,0.61464 0.1111,0.9219 0.0284,0.22038 -0.0202,0.50162 -0.25269,0.59221 -0.27441,0.10298 -0.54936,-0.055 -0.82218,-0.0806 -0.25199,-0.0262 -0.5046,0.0868 -0.6568,0.28835 -0.20217,0.23308 -0.38385,0.48311 -0.57516,0.72501 -0.16361,0.19198 -0.30513,0.41825 -0.52966,0.54522 -0.17735,0.10117 -0.39993,0.12743 -0.5917,0.0517 -0.2564,-0.10376 -0.44619,-0.31394 -0.63665,-0.50643 -0.56161,-0.5842 -1.12307,-1.16814 -1.68465,-1.75234 -0.20323,-0.15072 -0.44568,-0.28836 -0.70849,-0.25477 -0.27968,0.0493 -0.4743,0.29603 -0.56123,0.55239 -0.1687,0.41983 -0.31647,0.84818 -0.47544,1.27175 -0.11036,0.28415 -0.2,0.57675 -0.32659,0.85421 -0.16389,0.362 -0.32981,0.72322 -0.51108,1.07694 -0.14607,0.23771 -0.28759,0.47847 -0.45113,0.70486 -0.13711,0.16818 -0.33554,0.29487 -0.55397,0.3173 -0.24949,0.018 -0.49632,-0.0467 -0.73846,-0.0992 -0.58145,-0.13587 -1.15995,-0.28394 -1.73943,-0.42788 -0.17098,-0.0784 -0.38388,-0.004 -0.49247,0.14263 -0.12398,0.15703 -0.0411,0.36817 0.006,0.53795 0.10651,0.3235 0.23177,0.64066 0.3483,0.96067 0.15026,0.40613 0.30485,0.81078 0.46302,1.21387 0.0894,0.20875 0.17781,0.41776 0.26769,0.62632 11.37631,2.1428 20.4781,1.86723 29.94338,0.11317 0.12268,-0.32372 0.23508,-0.65133 0.35192,-0.9772 0.16589,-0.49563 0.30058,-1.00082 0.42427,-1.50844 0.0823,-0.38526 0.13867,-0.77549 0.19068,-1.16582 0.0529,-0.33603 0.0752,-0.6757 0.10955,-1.01388 0.0278,-0.34803 0.0468,-0.69669 0.0429,-1.04593 0.003,-0.3162 -0.004,-0.63284 -0.0145,-0.94878 -0.0256,-0.36911 -0.0511,-0.73821 -0.0873,-1.1064 -0.0456,-0.38742 -0.10236,-0.77389 -0.17881,-1.15652 -0.062,-0.32554 -0.13194,-0.64934 -0.21601,-0.96996 -0.11744,-0.44994 -0.26671,-0.89132 -0.41702,-1.33119 -0.18985,-0.50777 -0.37892,-1.01629 -0.60928,-1.5074 -0.15402,-0.32451 -0.31078,-0.64812 -0.48523,-0.96221 -0.19413,-0.36873 -0.41584,-0.72171 -0.64544,-1.06919 -0.15163,-0.23515 -0.31815,-0.46067 -0.4785,-0.68989 -0.24736,-0.34799 -0.52187,-0.6753 -0.79372,-1.0041 -0.2509,-0.29745 -0.51888,-0.57964 -0.78804,-0.86043 -0.32113,-0.32623 -0.65443,-0.6413 -1.00718,-0.93328 -0.45162,-0.38015 -0.90539,-0.75803 -1.38648,-1.10072 -0.98742,-0.72445 -1.99694,-1.41853 -3.0055,-2.11304 -0.22342,-0.13511 -0.44471,-0.2752 -0.68317,-0.38292 -0.0728,-0.0235 -0.14783,-0.0371 -0.22324,-0.0424 z"
       style="fill:#ffa2f8;fill-opacity:1;stroke:none;stroke-width:0.42374995;stroke-miterlimit:4;stroke-dasharray:none;stroke-opacity:1" />
    <path
       sodipodi:nodetypes="ccccccccccccccccccccccccccccccccc"
       inkscape:connector-curvature="0"
       id="path5407"
       d="m 263.12251,262.81141 c -0.26211,-0.002 -0.53157,0.14059 -0.64389,0.38241 -0.33888,0.54967 -0.67828,1.15717 -0.63821,1.82521 -0.004,0.32175 -0.009,0.64357 -0.0134,0.96531 -0.1038,0.2517 -0.41646,0.29594 -0.65732,0.28887 -0.35039,0.0877 -0.49478,0.46073 -0.63459,0.75448 -0.20443,0.4539 -0.46218,0.95292 -0.95498,1.14309 -0.47311,0.20924 -0.9269,0.48341 -1.26607,0.88056 -0.45435,0.46414 -0.96804,0.93956 -1.12344,1.59629 -0.0944,0.30453 -0.13974,0.63172 -0.28991,0.91467 -0.29987,0.43084 -0.84328,0.55143 -1.31465,0.70022 -0.39346,0.12093 -0.79643,0.22421 -1.17358,0.38912 -0.30181,0.17936 -0.40421,0.53862 -0.57722,0.8232 -0.28454,0.54631 -0.54006,1.10998 -0.88108,1.62471 -1.19288,0.79495 -2.60303,1.14049 -3.96099,1.53893 -0.71652,0.18117 -1.43533,-0.084 -2.14769,-0.15452 -0.34231,-0.0489 -0.68449,-0.0978 -1.02681,-0.14675 -0.23372,0.0314 -0.46328,0.13171 -0.62838,0.30282 -0.18981,0.48133 -0.25179,0.99953 -0.29456,1.51153 -0.18679,0.47504 -0.45163,1.36946 -0.68272,1.82568 7.73249,1.47689 15.33268,0.89261 23.14716,-0.19864 0.51569,-1.61049 0.69811,-3.56265 0.88194,-5.23664 0.14208,-1.45847 0.28848,-2.95592 -0.0677,-4.39611 -0.36566,-1.39136 -1.16717,-2.6108 -1.97869,-3.77909 -0.83424,-1.165 -1.74434,-2.27269 -2.64428,-3.38688 -0.11666,-0.11461 -0.27165,-0.16741 -0.42892,-0.16846 z m -6.01772,7.26571 c -10e-4,-0.004 -0.005,-10e-4 -0.0159,0.0172 -0.0134,0.0768 0.0174,-0.004 0.0159,-0.0172 z m -0.5054,1.15755 c -0.002,-0.004 -0.008,-10e-4 -0.0163,0.0163 0.008,0.0774 0.0233,-0.003 0.0163,-0.0163 z"
       style="fill:#ffbafa;fill-opacity:1;stroke:none;stroke-width:0.42374995;stroke-miterlimit:4;stroke-dasharray:none;stroke-opacity:1" />
    <path
       sodipodi:nodetypes="ccsszssssscc"
       inkscape:connector-curvature="0"
       id="path5409"
       d="m 239.86799,279.2667 c 9.69053,1.87837 19.6456,1.91675 29.87548,0.10999 2.843,0.0158 11.65727,0.51267 11.68318,1.82376 0.0588,2.97752 -6.93207,1.0596 -9.00251,1.73424 -1.05227,0.34288 -1.13608,0.85055 -0.82749,1.24196 0.30859,0.39141 5.97097,0.49753 5.92521,2.20682 -0.0254,0.95047 -2.02319,4.07396 -8.00489,3.66182 -2.84012,-0.1957 -7.15538,-4.38383 -10.19177,-3.40768 -3.54893,1.14092 -0.2179,2.6506 -5.79512,3.12646 -6.42469,0.54817 -10.4613,-1.28536 -12.47695,-4.31087 -1.6523,-2.48012 -1.22276,-6.19251 -1.18514,-6.1865 z"
       style="fill:#e491de;fill-opacity:1;stroke:none;stroke-width:0.42374998;stroke-miterlimit:4;stroke-dasharray:none;stroke-opacity:1" />
    <path
       style="fill:#ffbafa;fill-opacity:1;stroke:none;stroke-width:0.42374995;stroke-miterlimit:4;stroke-dasharray:none;stroke-opacity:1"
       d="m 244.05805,282.48471 c -0.28815,0.58822 -0.25022,1.27857 -0.0799,1.89508 0.18957,0.75184 0.37847,1.52924 0.83161,2.17306 0.42673,0.57048 0.97973,1.06865 1.64633,1.33727 0.81502,0.28227 1.68807,0.29896 2.54093,0.33477 0.82602,0.0172 1.64361,-0.19248 2.39165,-0.53426 0.99166,-0.43207 1.92137,-0.98948 2.88197,-1.48401 1.02985,-0.53683 2.0837,-1.03234 3.17263,-1.43744 0.47118,-0.16968 0.98271,-0.21403 1.47644,-0.13143 0.95838,0.13492 1.84802,0.53997 2.72456,0.92976 1.42421,0.64877 2.9247,1.55638 4.27146,1.94877 1.34677,0.39239 3.56736,1.14848 3.56736,-0.36759 0,-1.51607 -2.0021,-1.69461 -2.86845,-2.59765 -0.29524,-0.44301 -0.16272,-1.06274 0.19828,-1.4273 0.23361,-0.27944 0.59643,-0.41927 0.95358,-0.43928 1.57892,-0.3504 4.90671,0.66966 4.94402,-1.0506 0.0373,-1.72027 -4.75921,-0.667 -5.73139,-0.66222 -6.75931,1.08921 -13.2838,0.97198 -19.85197,0.31894 -0.43675,0.0346 -0.87294,0.0753 -1.30878,0.11983 -0.57924,0.15513 -1.13039,0.41787 -1.60607,0.78418 -0.0514,0.0967 -0.10289,0.19338 -0.1543,0.29011 z"
       id="path5411"
       inkscape:connector-curvature="0"
       sodipodi:nodetypes="ccsszssssszzccczcccccc" />
    <path
       sodipodi:nodetypes="zzz"
       inkscape:connector-curvature="0"
       id="path5413"
       d="m 273.86225,287.95892 c -0.0975,1.63318 -3.24655,1.0201 -2.84071,-0.31991 0.40582,-1.34005 2.93817,-1.31323 2.84071,0.31991 z"
       style="fill:#ffbafa;fill-opacity:1;stroke:none;stroke-width:0.42375004;stroke-miterlimit:4;stroke-dasharray:none;stroke-opacity:1" />
    <path
       style="fill:#ffbafa;fill-opacity:1;stroke:none;stroke-width:0.42375004;stroke-miterlimit:4;stroke-dasharray:none;stroke-opacity:1"
       d="m 275.53242,281.46925 c 0.14694,1.43234 -2.25403,0.87087 -2.18275,0.0288 0.0713,-0.84209 2.03581,-1.46113 2.18275,-0.0288 z"
       id="path5415"
       inkscape:connector-curvature="0"
       sodipodi:nodetypes="zzz" />
    <path
       sodipodi:nodetypes="zzz"
       inkscape:connector-curvature="0"
       id="path5417"
       d="m 277.07583,282.1441 c -0.82997,0.40646 -1.02475,-1.16414 -0.50188,-1.30811 0.52294,-0.14399 1.33184,0.90166 0.50188,1.30811 z"
       style="fill:#ffbafa;fill-opacity:1;stroke:none;stroke-width:0.42375004;stroke-miterlimit:4;stroke-dasharray:none;stroke-opacity:1" />
    <path
       style="fill:#ffbafa;fill-opacity:1;stroke:none;stroke-width:0.42375004;stroke-miterlimit:4;stroke-dasharray:none;stroke-opacity:1"
       d="m 268.1096,283.97028 c -0.0302,0.86575 -1.00493,0.54076 -0.87931,-0.16961 0.12563,-0.71038 0.90947,-0.69618 0.87931,0.16961 z"
       id="path5419"
       inkscape:connector-curvature="0"
       sodipodi:nodetypes="zzz" />
    <path
       style="fill:#e491de;fill-opacity:1;stroke:none;stroke-width:0.42375004;stroke-miterlimit:4;stroke-dasharray:none;stroke-opacity:1"
       d="m 247.81746,282.58892 c 0.73115,2.20659 -5.10966,2.08099 -5.14017,0.19859 -0.0305,-1.88243 4.40904,-2.40516 5.14017,-0.19859 z"
       id="path5421"
       inkscape:connector-curvature="0"
       sodipodi:nodetypes="zzz" />
    <path
       sodipodi:nodetypes="ccc"
       inkscape:connector-curvature="0"
       id="path5423"
       d="m 263.53941,282.06176 c -0.82994,1.52843 -4.82069,0.71855 -4.01354,-0.7444 0.19765,-0.56611 4.54869,-0.62382 4.01354,0.7444 z"
       style="fill:#e491de;fill-opacity:1;stroke:none;stroke-width:0.4237501;stroke-miterlimit:4;stroke-dasharray:none;stroke-opacity:1" />
    <path
       style="fill:#e491de;fill-opacity:1;stroke:none;stroke-width:0.42375007;stroke-miterlimit:4;stroke-dasharray:none;stroke-opacity:1"
       d="m 247.49838,284.65252 c -0.14288,0.52497 -0.8299,0.2468 -0.69095,-0.25569 0.034,-0.19444 0.78307,-0.21426 0.69095,0.25569 z"
       id="path5425"
       inkscape:connector-curvature="0"
       sodipodi:nodetypes="ccc" />
    <path
       sodipodi:nodetypes="ccc"
       inkscape:connector-curvature="0"
       id="path5427"
       d="m 248.31007,284.30517 c -0.87129,-0.35351 -0.0874,-1.17287 0.74566,-0.8316 0.33068,0.10599 0.0494,1.10085 -0.74566,0.8316 z"
       style="fill:#e491de;fill-opacity:1;stroke:none;stroke-width:0.42375007;stroke-miterlimit:4;stroke-dasharray:none;stroke-opacity:1" />
    <path
       style="fill:#e491de;fill-opacity:1;stroke:none;stroke-width:0.4237501;stroke-miterlimit:4;stroke-dasharray:none;stroke-opacity:1"
       d="m 263.25368,283.70546 c -0.48513,-0.24884 -0.17811,-0.82559 0.28574,-0.58536 0.18413,0.0746 0.15697,0.7749 -0.28574,0.58536 z"
       id="path5429"
       inkscape:connector-curvature="0"
       sodipodi:nodetypes="ccc" />
    <g
       id="g6314">
      <g
         aria-label="GEGELATI"
         style="font-style:normal;font-variant:normal;font-weight:normal;font-stretch:normal;font-size:39.31712723px;line-height:125%;font-family:'Bauhaus 93';-inkscape-font-specification:'Bauhaus 93, ';letter-spacing:0px;word-spacing:0px;fill:#ffa2f8;fill-opacity:1;stroke:none;stroke-width:0.26458332px;stroke-linecap:butt;stroke-linejoin:miter;stroke-opacity:1"
         id="text5435">
        <path
           d="m 285.51141,264.09794 h 7.42956 q 2.39972,2.97566 2.39972,6.27769 0,3.83956 -2.82208,6.45046 -2.80288,2.61091 -6.91121,2.61091 -5.33699,0 -9.06137,-4.05074 -3.72437,-4.05074 -3.72437,-9.86768 0,-5.83614 3.78196,-9.71409 3.80117,-3.87796 9.48373,-3.87796 1.93898,0 4.30031,0.78711 v 7.79431 q -1.84299,-0.8639 -3.35962,-0.8639 -2.74529,0 -4.49229,1.7086 -1.7278,1.70861 -1.7278,4.4347 0,2.78368 1.61261,4.4155 1.61262,1.63181 4.35791,1.63181 1.747,0 1.747,-1.01748 0,-0.76792 -1.15187,-0.76792 h -1.86219 z"
           style="font-style:normal;font-variant:normal;font-weight:normal;font-stretch:normal;font-family:'Bauhaus 93';-inkscape-font-specification:'Bauhaus 93, ';fill:#ffa2f8;fill-opacity:1;stroke-width:0.26458332px"
           id="path876"
           inkscape:connector-curvature="0" />
        <path
           d="m 309.66416,265.51092 v 4.83824 h -4.21755 q -0.85943,0 -1.22548,0.25465 -0.35014,0.25464 -0.35014,0.85943 0,0.68435 0.36606,0.90717 0.36605,0.2069 1.49603,0.2069 h 4.34488 v 6.20696 h -5.07698 q -3.58094,0 -5.47486,-1.70294 -1.89392,-1.71885 -1.89392,-4.94965 V 263.617 q 0,-3.1194 1.78251,-4.83825 1.79843,-1.71886 5.04515,-1.71886 h 5.6181 v 6.2388 h -4.12206 q -1.67111,0 -1.67111,1.08224 0,0.63661 0.39788,0.89126 0.39789,0.23873 1.41646,0.23873 z"
           style="font-size:32.59452438px;fill:#ffa2f8;fill-opacity:1;stroke-width:0.26458332px"
           id="path878"
           inkscape:connector-curvature="0" />
        <path
           d="m 323.00118,266.60907 h 6.15922 q 1.98941,2.46687 1.98941,5.2043 0,3.18306 -2.33955,5.34754 -2.32363,2.16448 -5.72951,2.16448 -4.42445,0 -7.51201,-3.35813 -3.08757,-3.35812 -3.08757,-8.18046 0,-4.83825 3.13531,-8.05314 3.15123,-3.21489 7.86216,-3.21489 1.60744,0 3.56502,0.65253 v 6.46161 q -1.52787,-0.71619 -2.78517,-0.71619 -2.27589,0 -3.72418,1.41646 -1.43238,1.41646 -1.43238,3.67644 0,2.30771 1.33689,3.66051 1.33688,1.3528 3.61277,1.3528 1.44829,0 1.44829,-0.84351 0,-0.63661 -0.95492,-0.63661 h -1.54378 z"
           style="font-size:32.59452438px;fill:#ffa2f8;fill-opacity:1;stroke-width:0.26458332px"
           id="path880"
           inkscape:connector-curvature="0" />
        <path
           d="m 345.37808,265.51092 v 4.83824 h -4.21755 q -0.85943,0 -1.22548,0.25465 -0.35014,0.25464 -0.35014,0.85943 0,0.68435 0.36606,0.90717 0.36605,0.2069 1.49603,0.2069 h 4.34488 v 6.20696 h -5.07698 q -3.58094,0 -5.47486,-1.70294 -1.89392,-1.71885 -1.89392,-4.94965 V 263.617 q 0,-3.1194 1.78251,-4.83825 1.79843,-1.71886 5.04515,-1.71886 h 5.6181 v 6.2388 h -4.12206 q -1.67111,0 -1.67111,1.08224 0,0.63661 0.39788,0.89126 0.39789,0.23873 1.41647,0.23873 z"
           style="font-size:32.59452438px;fill:#ffa2f8;fill-opacity:1;stroke-width:0.26458332px"
           id="path882"
           inkscape:connector-curvature="0" />
        <path
           d="m 349.07043,257.05989 h 6.46161 v 12.90731 q 0,1.51195 0.47746,2.02124 0.49337,0.49337 1.92575,0.49337 h 0.33422 v 6.30246 h -1.71885 q -3.5332,0 -5.50669,-2.05307 -1.9735,-2.06899 -1.9735,-5.72951 z"
           style="font-size:32.59452438px;fill:#ffa2f8;fill-opacity:1;stroke-width:0.26458332px"
           id="path884"
           inkscape:connector-curvature="0" />
        <path
           d="m 368.34385,267.88229 v 5.72951 h -1.86209 v 5.17247 h -6.46161 V 264.9698 q 0,-4.01066 2.1804,-6.22289 2.19631,-2.22814 6.15922,-2.22814 3.81967,0 5.64993,2.02125 1.83026,2.00532 1.83026,6.20696 v 14.03729 h -6.46161 v -13.60758 q 0,-1.27322 -0.30239,-1.76659 -0.3024,-0.49338 -1.08224,-0.49338 -1.51196,0 -1.51196,2.25997 v 2.7056 z"
           style="font-size:32.59452438px;fill:#ffa2f8;fill-opacity:1;stroke-width:0.26458332px"
           id="path886"
           inkscape:connector-curvature="0" />
        <path
           d="m 389.2088,263.29869 v 15.48558 h -6.46161 v -15.48558 h -4.94965 v -6.2388 h 16.345 v 6.2388 z"
           style="font-size:32.59452438px;fill:#ffa2f8;fill-opacity:1;stroke-width:0.26458332px"
           id="path888"
           inkscape:connector-curvature="0" />
        <path
           d="m 403.02328,257.05989 v 21.72438 h -6.46161 v -21.72438 z"
           style="font-size:32.59452438px;fill:#ffa2f8;fill-opacity:1;stroke-width:0.26458332px"
           id="path890"
           inkscape:connector-curvature="0" />
      </g>
      <path
         style="fill:#ffbafa;fill-opacity:1;stroke:none;stroke-width:1.46500003;stroke-linecap:square;stroke-linejoin:bevel;stroke-miterlimit:4;stroke-dasharray:none;stroke-opacity:1;paint-order:stroke fill markers"
         d="m 284.8548,253.18181 c 0.31667,0.53952 -1.37254,2.16083 -3.77291,3.62126 -2.40035,1.46043 -4.60292,2.20695 -4.91955,1.66742 -0.31668,-0.53952 1.07295,-2.68303 3.47333,-4.14347 2.40035,-1.46043 4.9025,-1.68474 5.21913,-1.14521 z"
         id="path5899"
         inkscape:connector-curvature="0"
         sodipodi:nodetypes="cscsc" />
      <path
         inkscape:connector-curvature="0"
         id="path5902"
         d="m 303.27384,258.15496 c 0.17847,0.36624 -0.66553,1.55137 -1.88513,2.64708 -1.2196,1.09569 -2.35294,1.68705 -2.5314,1.32082 -0.17846,-0.36623 0.11146,-1.92077 1.33106,-3.01648 1.2196,-1.09568 2.90701,-1.31765 3.08547,-0.95142 z"
         style="fill:#ffbafa;fill-opacity:1;stroke:none;stroke-width:1.46500027;stroke-linecap:square;stroke-linejoin:bevel;stroke-miterlimit:4;stroke-dasharray:none;stroke-opacity:1;paint-order:stroke fill markers"
         sodipodi:nodetypes="cscsc" />
      <path
         style="fill:#ffbafa;fill-opacity:1;stroke:none;stroke-width:1.46500027;stroke-linecap:square;stroke-linejoin:bevel;stroke-miterlimit:4;stroke-dasharray:none;stroke-opacity:1;paint-order:stroke fill markers"
         d="m 339.19487,258.15496 c 0.17846,0.36624 -0.66554,1.55137 -1.88514,2.64708 -1.2196,1.09569 -2.35293,1.68705 -2.53139,1.32082 -0.17847,-0.36623 -0.0271,-1.82842 1.19254,-2.92413 1.21959,-1.09568 3.04552,-1.40999 3.22399,-1.04377 z"
         id="path5904"
         inkscape:connector-curvature="0"
         sodipodi:nodetypes="cscsc" />
      <path
         inkscape:connector-curvature="0"
         id="path5906"
         d="m 366.98793,257.51416 c 0.23161,0.33809 -0.77463,1.48909 -2.24754,2.57084 -1.4729,1.08176 -2.85471,1.68463 -3.08638,1.34657 -0.23161,-0.3381 0.40526,-1.81232 1.87818,-2.89409 1.4729,-1.08173 3.22408,-1.36138 3.45574,-1.02332 z"
         style="fill:#ffbafa;fill-opacity:1;stroke:none;stroke-width:1.46500027;stroke-linecap:square;stroke-linejoin:bevel;stroke-miterlimit:4;stroke-dasharray:none;stroke-opacity:1;paint-order:stroke fill markers"
         sodipodi:nodetypes="cscsc" />
      <path
         style="fill:#ffbafa;fill-opacity:1;stroke:none;stroke-width:1.46500027;stroke-linecap:square;stroke-linejoin:bevel;stroke-miterlimit:4;stroke-dasharray:none;stroke-opacity:1;paint-order:stroke fill markers"
         d="m 378.36923,258.96217 c 0,-1.27209 0.54568,-1.45623 1.33026,-1.45624 1.16012,0 3.36296,-0.0522 3.36296,0.39769 -1e-5,1.14648 -2.54477,0.27989 -3.14891,0.90996 -0.65508,0.68318 -0.18158,2.28256 -0.85026,2.28256 -0.77004,-10e-6 -0.69405,-1.19266 -0.69405,-2.13397 z"
         id="path5908"
         inkscape:connector-curvature="0"
         sodipodi:nodetypes="ccsssc" />
      <path
         sodipodi:nodetypes="ccsssc"
         inkscape:connector-curvature="0"
         id="path5912"
         d="m 397.06976,258.96216 c 0,-1.27208 0.54568,-1.45622 1.33027,-1.45623 1.16011,0 1.64882,-0.0522 1.64882,0.39769 0,1.14648 -0.83064,0.27989 -1.43478,0.90996 -0.65508,0.68318 -0.18158,2.28255 -0.85026,2.28255 -0.77004,0 -0.69405,-1.19265 -0.69405,-2.13397 z"
         style="fill:#ffbafa;fill-opacity:1;stroke:none;stroke-width:1.46500027;stroke-linecap:square;stroke-linejoin:bevel;stroke-miterlimit:4;stroke-dasharray:none;stroke-opacity:1;paint-order:stroke fill markers" />
      <path
         style="fill:#ffbafa;fill-opacity:1;stroke:none;stroke-width:1.46500027;stroke-linecap:square;stroke-linejoin:bevel;stroke-miterlimit:4;stroke-dasharray:none;stroke-opacity:1;paint-order:stroke fill markers"
         d="m 320.5519,257.96566 c 0.24459,0.32882 -0.71603,1.51813 -2.14569,2.65644 -1.42966,1.13828 -2.78692,1.79457 -3.03156,1.46578 -0.24459,-0.32883 0.44607,-1.92351 1.87576,-3.06183 1.42965,-1.13826 3.05684,-1.38917 3.30149,-1.06039 z"
         id="path5916"
         inkscape:connector-curvature="0"
         sodipodi:nodetypes="cscsc" />
      <path
         style="fill:#ffbafa;fill-opacity:1;stroke:none;stroke-width:1.46500027;stroke-linecap:square;stroke-linejoin:bevel;stroke-miterlimit:4;stroke-dasharray:none;stroke-opacity:1;paint-order:stroke fill markers"
         d="m 286.26612,266.30441 c 0,-1.48466 0.63686,-1.69958 1.55256,-1.69958 1.35397,-10e-6 2.8008,-0.061 2.80079,0.46415 1e-5,1.33806 -1.84588,0.32665 -2.55097,1.06202 -0.76455,0.79734 -0.21193,2.66399 -0.99236,2.66399 -0.89871,-10e-6 -0.81002,-1.39196 -0.81002,-2.49058 z"
         id="path5918"
         inkscape:connector-curvature="0"
         sodipodi:nodetypes="ccsssc" />
      <path
         sodipodi:nodetypes="ccsssc"
         inkscape:connector-curvature="0"
         id="path5920"
         d="m 323.59731,268.40586 c 1e-5,-1.12256 0.48154,-1.28506 1.17391,-1.28507 1.02376,0 2.11771,-0.0461 2.11771,0.35094 0,1.01173 -1.39569,0.247 -1.92882,0.80302 -0.57805,0.60291 -0.16024,2.01427 -0.75033,2.01427 -0.67953,-10e-6 -0.61247,-1.05247 -0.61247,-1.88316 z"
         style="fill:#ffbafa;fill-opacity:1;stroke:none;stroke-width:1.46500027;stroke-linecap:square;stroke-linejoin:bevel;stroke-miterlimit:4;stroke-dasharray:none;stroke-opacity:1;paint-order:stroke fill markers" />
      <path
         style="fill:#ffbafa;fill-opacity:1;stroke:none;stroke-width:1.46500027;stroke-linecap:square;stroke-linejoin:bevel;stroke-miterlimit:4;stroke-dasharray:none;stroke-opacity:1;paint-order:stroke fill markers"
         d="m 349.62295,258.89291 c 0,-1.27209 0.54568,-1.45623 1.33026,-1.45624 1.16011,0 1.64883,-0.0522 1.64882,0.39769 0,1.14648 -0.83063,0.27989 -1.43477,0.90996 -0.65508,0.68318 -0.18159,2.28256 -0.85027,2.28256 -0.77003,-1e-5 -0.69405,-1.19266 -0.69404,-2.13397 z"
         id="path5922"
         inkscape:connector-curvature="0"
         sodipodi:nodetypes="ccsssc" />
    </g>
  </g>
</svg>
