<?xml version="1.0" encoding="UTF-8" standalone="no"?>
<!-- Created with Inkscape (http://www.inkscape.org/) -->

<svg
   xmlns:dc="http://purl.org/dc/elements/1.1/"
   xmlns:cc="http://creativecommons.org/ns#"
   xmlns:rdf="http://www.w3.org/1999/02/22-rdf-syntax-ns#"
   xmlns:svg="http://www.w3.org/2000/svg"
   xmlns="http://www.w3.org/2000/svg"
   xmlns:sodipodi="http://sodipodi.sourceforge.net/DTD/sodipodi-0.dtd"
   xmlns:inkscape="http://www.inkscape.org/namespaces/inkscape"
   width="61.387894mm"
   height="66.309067mm"
   viewBox="0 0 61.387894 66.309067"
   version="1.1"
   id="svg8"
   inkscape:version="0.92.4 (5da689c313, 2019-01-14)"
   sodipodi:docname="logo-compact-with-text-monochrome.svg">
  <defs
     id="defs2">
    <pattern
       y="0"
       x="0"
       height="6"
       width="6"
       patternUnits="userSpaceOnUse"
       id="EMFhbasepattern" />
    <pattern
       y="0"
       x="0"
       height="6"
       width="6"
       patternUnits="userSpaceOnUse"
       id="EMFhbasepattern-7" />
    <clipPath
       id="clipEmfPath1"
       clipPathUnits="userSpaceOnUse">
      <path
         id="path868"
         d="M 10.719921,32.799757 C 9.3599307,33.999748 8.9599336,35.919734 9.6799283,37.519722 L 77.519426,194.47856 c 0.239998,0.56 0.559996,1.03999 1.039992,1.35999 0,0 1.599988,1.43999 4.07997,2.47998 2.479981,1.11999 6.159954,2.07999 10.879919,1.91999 9.439933,-0.16 23.039833,-4.63997 41.199693,-19.83986 18.07987,-15.19988 24.79982,-27.83979 26.6398,-37.11972 0.96,-4.63997 0.64,-8.39994 0,-11.03992 -0.55999,-2.63998 -1.67998,-4.47997 -1.67998,-4.47997 -0.32,-0.47999 -0.72,-0.87999 -1.19999,-1.19999 L 15.679884,32.479759 c -1.519989,-1.039992 -3.599973,-0.879993 -4.959963,0.319998 z"
         inkscape:connector-curvature="0" />
    </clipPath>
    <pattern
       y="0"
       x="0"
       height="6"
       width="6"
       patternUnits="userSpaceOnUse"
       id="EMFhbasepattern-3" />
    <clipPath
       id="clipEmfPath1-4"
       clipPathUnits="userSpaceOnUse">
      <path
         id="path1056"
         d="M 1.4399893,1.0399923 C 0.07999941,2.159984 -0.39999704,4.0799698 0.31999763,5.6799579 L 68.159495,162.6388 c 0.239998,0.55999 0.639995,1.03999 1.039992,1.43998 0,0 1.599989,1.43999 4.07997,2.47999 2.559981,1.03999 6.159955,1.99998 10.87992,1.91998 9.519929,-0.24 23.039833,-4.63996 41.199693,-19.83985 18.15987,-15.19989 24.87982,-27.83979 26.7198,-37.11973 0.88,-4.63996 0.56,-8.39993 0,-11.03991 -0.63999,-2.639985 -1.75998,-4.479971 -1.75998,-4.479971 -0.32,-0.479997 -0.72,-0.959993 -1.19999,-1.279991 L 6.3199532,0.63999526 C 4.7999644,-0.31999763 2.7999793,-0.15999881 1.4399893,1.0399923 Z"
         inkscape:connector-curvature="0" />
    </clipPath>
    <pattern
       y="0"
       x="0"
       height="6"
       width="6"
       patternUnits="userSpaceOnUse"
       id="EMFhbasepattern-78" />
    <pattern
       y="0"
       x="0"
       height="6"
       width="6"
       patternUnits="userSpaceOnUse"
       id="EMFhbasepattern-6" />
    <pattern
       y="0"
       x="0"
       height="6"
       width="6"
       patternUnits="userSpaceOnUse"
       id="WMFhbasepattern" />
    <pattern
       y="0"
       x="0"
       height="6"
       width="6"
       patternUnits="userSpaceOnUse"
       id="EMFhbasepattern-31" />
    <clipPath
       id="clipEmfPath1-7"
       clipPathUnits="userSpaceOnUse">
      <path
         id="path1616"
         d="m -269.27801,32.799757 c -1.35999,1.199991 -1.75998,3.119977 -1.03999,4.719965 l 67.8395,156.958838 c 0.24,0.56 0.56,1.03999 1.03999,1.35999 0,0 1.59999,1.43999 4.07997,2.47998 2.47998,1.11999 6.15996,2.07999 10.87992,1.91999 9.43993,-0.16 23.03983,-4.63997 41.1997,-19.83986 18.07986,-15.19988 24.79981,-27.83979 26.6398,-37.11972 0.95999,-4.63997 0.63999,-8.39994 0,-11.03992 -0.56,-2.63998 -1.67999,-4.47997 -1.67999,-4.47997 -0.32,-0.47999 -0.71999,-0.87999 -1.19999,-1.19999 L -264.31804,32.479759 c -1.51999,-1.039992 -3.59998,-0.879993 -4.95997,0.319998 z"
         inkscape:connector-curvature="0" />
    </clipPath>
    <pattern
       y="0"
       x="0"
       height="6"
       width="6"
       patternUnits="userSpaceOnUse"
       id="EMFhbasepattern-2" />
    <clipPath
       id="clipEmfPath1-3"
       clipPathUnits="userSpaceOnUse">
      <path
         id="path1805"
         d="M 10.719921,32.799757 C 9.3599307,33.999748 8.9599336,35.919734 9.6799283,37.519722 L 77.519426,194.47856 c 0.239998,0.56 0.559996,1.03999 1.039992,1.35999 0,0 1.599988,1.43999 4.07997,2.47998 2.479981,1.11999 6.159954,2.07999 10.879919,1.91999 9.439933,-0.16 23.039833,-4.63997 41.199693,-19.83986 18.07987,-15.19988 24.79982,-27.83979 26.6398,-37.11972 0.96,-4.63997 0.64,-8.39994 0,-11.03992 -0.55999,-2.63998 -1.67998,-4.47997 -1.67998,-4.47997 -0.32,-0.47999 -0.72,-0.87999 -1.19999,-1.19999 L 15.679884,32.479759 c -1.519989,-1.039992 -3.599973,-0.879993 -4.959963,0.319998 z"
         inkscape:connector-curvature="0" />
    </clipPath>
    <pattern
       y="0"
       x="0"
       height="6"
       width="6"
       patternUnits="userSpaceOnUse"
       id="EMFhbasepattern-9" />
    <clipPath
       id="clipEmfPath1-2"
       clipPathUnits="userSpaceOnUse">
      <path
         id="path1993"
         d="M 1.4399893,1.0399923 C 0.07999941,2.159984 -0.39999704,4.0799698 0.31999763,5.6799579 L 68.159495,162.6388 c 0.239998,0.55999 0.639995,1.03999 1.039992,1.43998 0,0 1.599989,1.43999 4.07997,2.47999 2.559981,1.03999 6.159955,1.99998 10.87992,1.91998 9.519929,-0.24 23.039833,-4.63996 41.199693,-19.83985 18.15987,-15.19989 24.87982,-27.83979 26.7198,-37.11973 0.88,-4.63996 0.56,-8.39993 0,-11.03991 -0.63999,-2.639985 -1.75998,-4.479971 -1.75998,-4.479971 -0.32,-0.479997 -0.72,-0.959993 -1.19999,-1.279991 L 6.3199532,0.63999526 C 4.7999644,-0.31999763 2.7999793,-0.15999881 1.4399893,1.0399923 Z"
         inkscape:connector-curvature="0" />
    </clipPath>
    <pattern
       y="0"
       x="0"
       height="6"
       width="6"
       patternUnits="userSpaceOnUse"
       id="EMFhbasepattern-32" />
    <pattern
       y="0"
       x="0"
       height="6"
       width="6"
       patternUnits="userSpaceOnUse"
       id="EMFhbasepattern-0" />
    <pattern
       y="0"
       x="0"
       height="6"
       width="6"
       patternUnits="userSpaceOnUse"
       id="WMFhbasepattern-0" />
  </defs>
  <sodipodi:namedview
     id="base"
     pagecolor="#ffffff"
     bordercolor="#666666"
     borderopacity="1.0"
     inkscape:pageopacity="0.0"
     inkscape:pageshadow="2"
     inkscape:zoom="0.98994949"
     inkscape:cx="263.41431"
     inkscape:cy="-32.293457"
     inkscape:document-units="mm"
     inkscape:current-layer="layer1"
     showgrid="false"
     inkscape:pagecheckerboard="true"
     fit-margin-top="0"
     fit-margin-left="0"
     fit-margin-right="0"
     fit-margin-bottom="0"
     inkscape:window-width="1920"
     inkscape:window-height="1001"
     inkscape:window-x="-9"
     inkscape:window-y="-9"
     inkscape:window-maximized="1" />
  <metadata
     id="metadata5">
    <rdf:RDF>
      <cc:Work
         rdf:about="">
        <dc:format>image/svg+xml</dc:format>
        <dc:type
           rdf:resource="http://purl.org/dc/dcmitype/StillImage" />
        <dc:title></dc:title>
      </cc:Work>
    </rdf:RDF>
  </metadata>
  <g
     inkscape:label="Layer 1"
     inkscape:groupmode="layer"
     id="layer1"
     transform="translate(-55.864356,-78.25916)">
    <g
       id="g1803">
      <path
         id="path1622"
         d="m 64.018045,78.260217 c -0.317498,0 -0.634996,0.04233 -0.97366,0.105832 -1.312323,0.296331 -2.370649,1.037159 -3.174976,2.24365 -0.783161,1.206491 -1.079492,2.497648 -0.846661,3.831138 0.211666,1.354657 0.867827,2.391816 1.968486,3.132644 0.867827,0.550329 1.75682,0.761994 2.688147,0.592662 0.952493,-0.148166 1.672154,-0.634995 2.201317,-1.418156 0.465663,-0.698495 0.634995,-1.502822 0.550329,-2.455315 l -2.30715,-1.523989 -1.227657,1.862653 0.571496,0.380997 c 0.253998,0.148166 0.317497,0.317498 0.211665,0.465663 -0.148166,0.211665 -0.402164,0.211665 -0.761995,-0.04233 -0.571496,-0.35983 -0.91016,-0.825494 -1.015992,-1.396989 -0.105833,-0.55033 0.02117,-1.121825 0.402164,-1.693321 0.380997,-0.571496 0.84666,-0.91016 1.439322,-1.037159 0.613829,-0.105833 1.185325,0.02117 1.75682,0.402164 0.317498,0.190498 0.613829,0.507996 0.867827,0.952492 l 1.587489,-2.434148 c -0.380998,-0.48683 -0.761995,-0.84666 -1.164158,-1.121825 -0.888994,-0.571496 -1.799154,-0.867827 -2.772813,-0.84666 z m 0.275164,0.275164 c 1.037159,0.04233 1.862653,0.48683 1.862653,0.719661 -0.02117,0.232832 -0.867827,0.380998 -1.926152,0.338665 -1.037159,-0.04233 -1.88382,-0.253998 -1.862653,-0.48683 0,-0.232832 0.867827,-0.613829 1.926152,-0.571496 z m 0.02117,4.741298 c 0.148166,-0.02117 0.275165,0.04233 0.42333,0.126999 0.402164,0.275165 0.867827,0.55033 0.761995,0.719662 -0.275165,0.42333 -0.634995,-0.275165 -1.015993,-0.190499 -0.380997,0.08467 -0.592662,0.783161 -0.84666,0.634995 -0.275165,-0.190498 0.04233,-0.613828 0.253998,-0.952493 0.169332,-0.232831 0.296331,-0.338664 0.42333,-0.338664 z"
         style="fill:#00001e;fill-opacity:1;fill-rule:nonzero;stroke:none;stroke-width:0.26458332"
         inkscape:connector-curvature="0" />
      <path
         id="path1624"
         d="m 69.987,83.932841 c -0.148165,0 -0.296331,0 -0.465663,0.04233 -0.592662,0.105833 -1.100658,0.48683 -1.545155,1.142992 l -1.735654,2.645813 c -0.444496,0.656162 -0.592662,1.312324 -0.42333,1.926153 0.148166,0.613828 0.613829,1.164158 1.354657,1.650987 l 1.566321,1.037159 1.269991,-1.926152 -1.33349,-0.888993 c -0.232832,-0.169332 -0.380997,-0.275165 -0.42333,-0.380997 -0.04233,-0.08467 -0.02117,-0.211666 0.0635,-0.359831 0.08467,-0.126999 0.169332,-0.190499 0.296331,-0.190499 0.105833,0 0.253999,0.0635 0.423331,0.169332 l 1.312323,0.867827 0.994826,-1.502822 -1.121825,-0.740828 c -0.211665,-0.126999 -0.338664,-0.253998 -0.380997,-0.35983 -0.04233,-0.105833 -0.02117,-0.211666 0.0635,-0.359831 0.148165,-0.211665 0.380997,-0.211665 0.740827,0.02117 l 1.269991,0.825493 1.291157,-1.926152 -1.75682,-1.164158 C 70.939494,84.144507 70.452664,83.954008 69.987,83.932841 Z m -0.0635,0.275165 c 0.507996,0 0.952493,0.232831 0.931326,0.35983 -0.02117,0.148166 -0.529162,0.338664 -1.121824,0.444497 -0.613829,0.08467 -1.079493,0.04233 -1.058326,-0.105833 0.02117,-0.169332 0.42333,-0.592662 1.037159,-0.677328 0.0635,0 0.148165,-0.02117 0.211665,-0.02117 z"
         style="fill:#00001e;fill-opacity:1;fill-rule:nonzero;stroke:none;stroke-width:0.26458332"
         inkscape:connector-curvature="0" />
      <path
         id="path1626"
         d="m 75.172795,87.488815 c -0.253998,0 -0.529162,0.04233 -0.804327,0.105832 -1.079492,0.232832 -1.968485,0.846661 -2.624647,1.862653 -0.656162,0.994826 -0.888994,2.053151 -0.719662,3.174977 0.190499,1.121825 0.740828,1.968485 1.650988,2.582314 0.719662,0.465663 1.460489,0.634995 2.222484,0.507996 0.783161,-0.148166 1.396989,-0.529163 1.841486,-1.185325 0.359831,-0.571495 0.507996,-1.248824 0.444497,-2.031984 l -1.926153,-1.269991 -1.015992,1.545155 0.48683,0.317498 c 0.190498,0.126999 0.253998,0.253998 0.169332,0.380997 -0.105833,0.190499 -0.317498,0.169332 -0.613829,-0.02117 -0.48683,-0.317497 -0.761994,-0.698495 -0.84666,-1.164158 -0.105833,-0.465663 0,-0.931326 0.317497,-1.418156 0.317498,-0.465663 0.719662,-0.740828 1.206491,-0.84666 0.48683,-0.105833 0.97366,0 1.439323,0.317497 0.275165,0.169332 0.507996,0.444497 0.719661,0.804328 l 1.33349,-2.010819 c -0.317497,-0.402164 -0.634995,-0.719661 -0.973659,-0.931326 -0.740828,-0.48683 -1.502822,-0.719662 -2.30715,-0.719662 z m 0.105833,0.211665 c 0.550329,0 0.994826,0.211665 0.994826,0.35983 0,0.148166 -0.529163,0.317498 -1.206491,0.380998 -0.677329,0.0635 -1.248824,-0.02117 -1.248824,-0.169332 0,-0.148166 0.529162,-0.507997 1.206491,-0.571496 0.08467,0 0.169332,0 0.253998,0 z m 0.126999,3.958137 c 0.08467,-0.02117 0.190498,0.04233 0.296331,0.105833 0.317498,0.211665 0.677328,0.42333 0.592662,0.550329 -0.211665,0.296331 -0.486829,-0.211665 -0.761994,-0.148166 -0.296331,0.0635 -0.465663,0.592662 -0.656162,0.465664 -0.211665,-0.148166 0.04233,-0.444497 0.211665,-0.719662 0.105833,-0.169332 0.211666,-0.232831 0.317498,-0.253998 z"
         style="fill:#00001e;fill-opacity:1;fill-rule:nonzero;stroke:none;stroke-width:0.26458332"
         inkscape:connector-curvature="0" />
      <path
         id="path1628"
         d="m 81.099417,91.256454 c -0.148164,0 -0.317497,0 -0.465661,0.04233 -0.592664,0.105833 -1.121826,0.48683 -1.545156,1.121825 l -1.735654,2.666981 c -0.444497,0.656161 -0.592662,1.312323 -0.42333,1.926152 0.148165,0.613829 0.613829,1.164158 1.354656,1.650988 l 1.566322,1.037159 1.26999,-1.926153 -1.354656,-0.888993 c -0.232832,-0.169332 -0.359831,-0.296331 -0.402164,-0.380997 -0.0635,-0.105833 -0.04233,-0.211665 0.0635,-0.359831 0.08467,-0.126999 0.169332,-0.190498 0.275164,-0.190498 0.127,0 0.254,0.04233 0.444497,0.169332 l 1.312323,0.867827 0.994828,-1.502823 -1.121826,-0.740827 c -0.211666,-0.127 -0.338664,-0.253999 -0.380997,-0.359831 -0.04233,-0.105833 -0.04233,-0.232832 0.0635,-0.359831 0.148164,-0.232832 0.380997,-0.211665 0.740828,0 l 1.269989,0.84666 1.291156,-1.926152 -1.75682,-1.164158 c -0.507994,-0.338662 -0.994825,-0.507994 -1.460489,-0.52916 z m -0.0635,0.317497 c 0.529161,0 1.015992,0.232832 0.994825,0.359831 -0.02117,0.148165 -0.529164,0.338664 -1.121825,0.42333 -0.613828,0.105833 -1.079492,0.04233 -1.058326,-0.105833 0.02117,-0.148165 0.359831,-0.571495 0.973659,-0.656161 0.0635,-0.02117 0.148167,-0.02117 0.211667,-0.02117 z"
         style="fill:#00001e;fill-opacity:1;fill-rule:nonzero;stroke:none;stroke-width:0.26458332"
         inkscape:connector-curvature="0" />
      <path
         id="path1630"
         d="m 85.332721,93.605936 -2.857479,4.339134 c -0.507997,0.761995 -0.698494,1.502823 -0.571497,2.20132 0.127,0.67733 0.571497,1.26999 1.291159,1.75682 l 0.550328,0.35983 1.291156,-1.96849 -0.105831,-0.0635 c -0.296331,-0.1905 -0.465664,-0.380994 -0.507997,-0.550326 -0.02117,-0.169332 0.0635,-0.42333 0.275164,-0.719661 l 2.645815,-4.021637 z m 0.148164,0.402164 c 0.127,-0.02117 0.232833,0.02117 0.359831,0.105832 0.359831,0.232832 0.529164,0.317498 0.423331,0.465664 -0.232831,0.35983 -0.317498,-0.08467 -0.634995,-0.02117 -0.338664,0.08467 -0.529164,0.677328 -0.719662,0.550329 -0.254,-0.169332 0.02117,-0.529162 0.211664,-0.804327 0.127,-0.211665 0.253998,-0.296331 0.359831,-0.296331 z"
         style="fill:#00001e;fill-opacity:1;fill-rule:nonzero;stroke:none;stroke-width:0.26458332"
         inkscape:connector-curvature="0" />
      <path
         id="path1632"
         d="m 89.650687,96.780912 c -0.211664,-0.02117 -0.402162,0 -0.592662,0.04233 -0.740828,0.169332 -1.396989,0.656161 -1.947317,1.502822 l -2.836312,4.296806 2.010817,1.31232 1.058326,-1.60865 0.592661,0.381 1.164159,-1.77799 -0.571495,-0.381 0.550328,-0.846663 c 0.317497,-0.465664 0.613828,-0.592662 0.931325,-0.380997 0.169334,0.105832 0.232834,0.232831 0.232834,0.35983 0,0.148166 -0.08467,0.35983 -0.253998,0.61383 l -2.793981,4.2333 2.01082,1.3335 2.878645,-4.36031 c 0.571495,-0.88899 0.804326,-1.650988 0.698495,-2.30715 -0.105833,-0.677328 -0.550331,-1.26999 -1.354656,-1.799153 -0.613831,-0.402163 -1.206492,-0.613829 -1.777989,-0.613829 z m -0.126998,0.253999 c 0.677328,-0.04233 1.291156,0.232831 1.291156,0.402163 0,0.148166 -0.550328,0.296331 -1.227656,0.338664 -0.677328,0.02117 -1.248825,-0.0635 -1.248825,-0.232831 0,-0.148166 0.507997,-0.465663 1.185325,-0.507996 z"
         style="fill:#00001e;fill-opacity:1;fill-rule:nonzero;stroke:none;stroke-width:0.26458332"
         inkscape:connector-curvature="0" />
      <path
         id="path1634"
         d="m 94.264988,99.490226 -1.269992,1.947314 1.52399,1.016 -3.174977,4.82596 2.010818,1.31232 3.174976,-4.80479 1.545156,0.99482 1.269989,-1.92615 z m 0.148164,0.42333 c 0.105834,-0.02117 0.232834,0.04233 0.359831,0.105834 0.359831,0.254 1.037159,0.67733 0.952492,0.82549 -0.232831,0.35983 -0.846659,-0.44449 -1.164156,-0.35983 -0.338664,0.0635 -0.529164,0.67733 -0.740828,0.52916 -0.232833,-0.14816 0.04233,-0.50799 0.232831,-0.80432 0.127,-0.1905 0.253997,-0.275168 0.35983,-0.296334 z"
         style="fill:#00001e;fill-opacity:1;fill-rule:nonzero;stroke:none;stroke-width:0.26458332"
         inkscape:connector-curvature="0" />
      <path
         id="path1636"
         d="m 100.10694,103.34253 -4.466129,6.75212 2.010817,1.33349 4.466132,-6.75212 z m 0.127,0.40216 c 0.10584,-0.0212 0.23283,0.0423 0.33867,0.127 0.35983,0.23283 0.52916,0.3175 0.44449,0.4445 -0.23283,0.35983 -0.31749,-0.0847 -0.63499,0 -0.33867,0.0847 -0.529164,0.67733 -0.740828,0.52916 -0.232834,-0.14816 0.04233,-0.50799 0.23283,-0.80432 0.126998,-0.1905 0.232828,-0.27517 0.359828,-0.29634 z"
         style="fill:#00001e;fill-opacity:1;fill-rule:nonzero;stroke:none;stroke-width:0.26458332"
         inkscape:connector-curvature="0" />
      <path
         id="path1638"
         d="m 56.863765,86.663321 c -0.232832,0 -0.444497,0.105832 -0.634996,0.253998 -0.296331,0.275164 -0.42333,0.677328 -0.338664,1.079492 0.465663,0.02117 0.931327,0.02117 1.418156,0.02117 0.0635,-0.402164 0.126999,-0.804328 0.190499,-1.206491 -0.190499,-0.126999 -0.42333,-0.169332 -0.634995,-0.148166 z m 0.804327,0.253998 c -0.04233,0.359831 -0.105833,0.740828 -0.148166,1.100658 0.592663,0.02117 1.185325,0 1.799154,0 z m -1.714487,1.26999 0.931326,2.137818 c 0.148166,-0.719661 0.275165,-1.418156 0.402164,-2.095485 -0.465663,-0.02117 -0.888994,-0.02117 -1.33349,-0.04233 z m 3.661806,0.02117 c -0.719661,0.02117 -1.439323,0.02117 -2.137818,0.02117 -0.126999,0.783161 -0.275164,1.587488 -0.465663,2.412982 l 0.571496,1.312323 c 0.973659,0.02117 1.968485,0.02117 3.005644,-0.02117 0.211665,-0.952493 0.380997,-1.862653 0.507996,-2.751646 z m 1.672154,1.100659 c -0.126999,0.84666 -0.296331,1.714487 -0.48683,2.60348 1.248825,-0.04233 2.539981,-0.148165 3.873472,-0.296331 0.02117,-0.02117 0.02117,-0.04233 0.02117,-0.0635 z m 3.746472,2.455315 c -0.0635,0.02117 -0.126999,0.02117 -0.190498,0.02117 -0.211665,1.269991 -0.507996,2.561148 -0.867827,3.915804 1.291157,-0.126999 2.645814,-0.296331 4.021637,-0.529162 0.08467,-0.42333 0.190498,-0.846661 0.275164,-1.269991 z m -0.380997,0.04233 c -1.354656,0.169332 -2.645814,0.275164 -3.894638,0.317497 -0.275164,1.227658 -0.592662,2.476482 -0.973659,3.788805 1.26999,-0.02117 2.603481,-0.08467 3.979304,-0.190498 0.35983,-1.354657 0.656161,-2.645814 0.888993,-3.915804 z m -4.106303,0.317497 c -0.994826,0.04233 -1.947319,0.04233 -2.878645,0.02117 l 1.629821,3.767638 c 0.08467,0 0.190499,0 0.275165,0 0.380997,-1.312323 0.698495,-2.561147 0.973659,-3.788805 z m 7.895108,1.88382 c -0.0635,0.380997 -0.148165,0.761994 -0.232831,1.142991 0.148165,-0.02117 0.275164,-0.04233 0.42333,-0.08467 0.380997,-0.0635 0.740828,-0.126999 1.100659,-0.211665 z m 1.523989,1.015992 c -0.42333,0.08467 -0.84666,0.169332 -1.291157,0.253998 -0.169332,0.02117 -0.338664,0.04233 -0.507996,0.08467 -0.296331,1.291157 -0.656162,2.624647 -1.079492,4.000471 0.740828,-0.105833 1.481655,-0.211665 2.24365,-0.359831 0.656161,-0.105833 1.291157,-0.232832 1.904985,-0.359831 0.232832,-0.825494 0.423331,-1.608654 0.592663,-2.391815 z m -2.010818,0.359831 c -1.39699,0.232831 -2.73048,0.402164 -4.021637,0.507996 -0.338664,1.269991 -0.740828,2.561148 -1.185325,3.873471 1.312324,-0.0635 2.688147,-0.190498 4.12747,-0.380997 0.42333,-1.375823 0.783161,-2.709313 1.079492,-4.00047 z m -4.233302,0.529162 c -1.39699,0.127 -2.73048,0.190499 -4.000471,0.190499 -0.04233,0.148166 -0.08467,0.317498 -0.126999,0.465663 l 1.39699,3.259643 c 0.507996,0 1.015992,-0.02117 1.523989,-0.04233 0.465663,-1.33349 0.867826,-2.624647 1.206491,-3.873472 z m -4.339135,0.190499 0.08467,0.190499 c 0.02117,-0.0635 0.02117,-0.126999 0.04233,-0.190499 -0.04233,0 -0.08467,0 -0.126999,0 z m 12.61524,0.253998 c -0.148166,0.740828 -0.338664,1.481656 -0.529163,2.222484 0.97366,-0.211665 1.926153,-0.444497 2.836313,-0.698495 z m 2.539981,1.672155 c -1.015992,0.275164 -2.053151,0.550329 -3.132643,0.78316 -0.359831,1.333493 -0.783161,2.709313 -1.291157,4.127473 1.502822,-0.27517 2.942144,-0.59267 4.317968,-0.9525 0.35983,-1.16415 0.677328,-2.307146 0.931326,-3.407804 z m 0.994826,0.656161 c -0.232831,1.058326 -0.529163,2.137822 -0.867827,3.238472 1.375823,-0.38099 2.688147,-0.78316 3.915804,-1.22765 z m -4.339134,0.169332 c -0.592663,0.126999 -1.206492,0.253999 -1.82032,0.359831 -0.804328,0.126999 -1.587488,0.253998 -2.349483,0.359831 -0.232831,0.719658 -0.48683,1.481658 -0.761994,2.222488 -0.211665,0.61382 -0.444497,1.18532 -0.677328,1.75682 1.375823,-0.127 2.815145,-0.3175 4.296801,-0.5715 0.507996,-1.41816 0.931326,-2.79398 1.312324,-4.12747 z m -4.402634,0.740828 c -1.418156,0.190499 -2.79398,0.317498 -4.12747,0.380997 -0.04233,0.148165 -0.105832,0.296335 -0.148165,0.465665 -0.190499,0.52916 -0.402164,1.03716 -0.592663,1.54515 l 0.761995,1.75682 c 0.867827,-0.0212 1.75682,-0.0847 2.688147,-0.16933 0.232831,-0.59266 0.486829,-1.20649 0.698494,-1.84148 0.275165,-0.71967 0.507997,-1.43933 0.719662,-2.137822 z m -4.339135,0.380997 c -0.465663,0.02117 -0.91016,0.04234 -1.375823,0.0635 l 0.740828,1.67216 c 0.169332,-0.4445 0.338664,-0.88899 0.507996,-1.33349 0.04233,-0.127 0.08467,-0.27517 0.126999,-0.40215 z m 16.340546,0.846665 c -1.312324,0.48683 -2.709314,0.93132 -4.212136,1.33349 -0.232832,0.78316 -0.507996,1.56632 -0.783161,2.37064 -0.253998,0.65617 -0.48683,1.27 -0.740828,1.88382 1.587489,-0.33866 3.111477,-0.76199 4.508467,-1.20649 0.529163,-1.48165 0.952493,-2.92098 1.312324,-4.31796 z m 0.275164,0.19049 c -0.359831,1.33349 -0.761994,2.70932 -1.248824,4.12747 1.608655,-0.52916 3.111477,-1.10065 4.508467,-1.69332 0.02117,-0.0847 0.04233,-0.16933 0.0635,-0.23283 z m -4.720132,1.18533 c -1.354656,0.35983 -2.772812,0.67733 -4.275634,0.95249 -0.02117,0 -0.02117,0 -0.04233,0 0,0 0,0 0,0.0212 -0.529162,1.43932 -1.079492,2.79398 -1.672154,4.08514 0.783161,-0.10584 1.566322,-0.23284 2.370649,-0.35984 0.719662,-0.127 1.418157,-0.27516 2.095485,-0.42333 0.275164,-0.65616 0.529163,-1.33349 0.783161,-2.01081 0.275164,-0.762 0.507996,-1.52399 0.740827,-2.26482 z m -4.550799,0.99482 c -1.481656,0.254 -2.899812,0.4445 -4.296802,0.5715 -0.444496,1.12182 -0.931326,2.20132 -1.418156,3.21731 l 0.296331,0.65616 c 1.206492,-0.0635 2.455316,-0.1905 3.746473,-0.35983 0.592662,-1.26999 1.164158,-2.64581 1.672154,-4.08514 z m 12.763404,0.127 c 0,0 0,0.0212 0,0.0212 0,0 0.02117,0 0.02117,-0.0212 z m 0.211667,0.14817 c -0.08467,0.0423 -0.1905,0.0847 -0.275164,0.127 -0.338667,1.18532 -0.740828,2.41298 -1.185325,3.66181 -0.127,0.31749 -0.253998,0.63499 -0.359831,0.97365 1.735653,-0.67732 3.301976,-1.37582 4.741299,-2.09548 0.0635,-0.21167 0.126997,-0.42333 0.190497,-0.63499 z m -0.507997,0.21166 c -1.39699,0.59267 -2.899812,1.16416 -4.529633,1.69333 -0.0635,0.16933 -0.126999,0.33866 -0.190498,0.52916 -0.48683,1.37582 -1.037159,2.68814 -1.587489,3.9158 1.693321,-0.44449 3.259643,-0.95249 4.7413,-1.50282 0.148164,-0.381 0.275164,-0.74083 0.423328,-1.12182 0.42333,-1.2065 0.804328,-2.37065 1.142992,-3.51365 z m -16.975541,0.10584 c -0.867827,0.0635 -1.69332,0.127 -2.518814,0.14816 l 1.206491,2.79398 c 0.444496,-0.93132 0.888993,-1.92615 1.312323,-2.94214 z m 12.213076,1.65099 c -1.439322,0.44449 -2.942144,0.84665 -4.529633,1.20648 -0.613828,1.52399 -1.291157,2.92098 -1.968485,4.25448 0.148166,-0.0212 0.275165,-0.0423 0.42333,-0.0635 1.502822,-0.27517 2.920978,-0.59267 4.275635,-0.9525 0.571496,-1.26999 1.142992,-2.62464 1.650988,-4.06397 0.04233,-0.127 0.08467,-0.254 0.148165,-0.38099 z m 8.551271,0.19049 c -0.02117,0.127 -0.08467,0.254 -0.105833,0.381 0.127,-0.0847 0.253998,-0.14816 0.380998,-0.21166 z m 0.465662,0.29633 c -0.211664,0.10584 -0.444495,0.23284 -0.656162,0.33867 -0.253997,0.78316 -0.507994,1.56632 -0.783161,2.34948 -0.338664,0.88899 -0.656161,1.73565 -1.015992,2.56115 1.904987,-0.84666 3.57714,-1.73565 5.03763,-2.60348 0.08467,-0.254 0.169333,-0.508 0.253997,-0.78316 z m -0.910159,0.46567 c -1.439323,0.71966 -3.026812,1.41815 -4.762465,2.07431 -0.656162,1.67216 -1.354657,3.23848 -2.074318,4.6778 1.82032,-0.55032 3.492474,-1.18532 5.03763,-1.86265 0.35983,-0.86783 0.719661,-1.77799 1.079492,-2.73048 0.253997,-0.71966 0.486828,-1.43932 0.719661,-2.15898 z m -12.869238,0.29633 c -0.656162,0.14816 -1.291157,0.27516 -1.968486,0.40216 -0.84666,0.14817 -1.69332,0.27517 -2.518814,0.381 -0.656162,1.43932 -1.354657,2.77281 -2.074318,4.02164 1.460489,-0.10584 3.005644,-0.29633 4.571966,-0.55033 0.698495,-1.33349 1.354656,-2.73048 1.989652,-4.25447 z m -4.720132,0.80433 c -1.227657,0.16933 -2.412982,0.27516 -3.555973,0.33866 l 1.545155,3.57714 c 0.677328,-1.20649 1.375823,-2.51881 2.010818,-3.9158 z m 21.505174,0.42333 c -0.04233,0.16933 -0.105833,0.33866 -0.169333,0.50799 0.169333,-0.10583 0.338664,-0.21166 0.486831,-0.29633 z m 0.507995,0.31749 c -0.253997,0.16934 -0.507995,0.3175 -0.761992,0.46567 -0.148167,0.42333 -0.275167,0.84666 -0.444497,1.29115 -0.507998,1.39699 -1.037159,2.70932 -1.608656,3.95814 2.158984,-1.10066 3.93697,-2.22248 5.39746,-3.25964 0.0635,-0.1905 0.127,-0.40217 0.211666,-0.61383 z m -9.419095,0.3175 c -1.481656,0.55033 -3.069144,1.05833 -4.762465,1.52399 -0.740828,1.58749 -1.523989,3.06914 -2.30715,4.4238 1.756821,-0.35983 3.407808,-0.78316 4.952963,-1.26999 0.740828,-1.43932 1.460491,-3.00565 2.116652,-4.6778 z m 8.403103,0.3175 c -1.481656,0.86783 -3.15381,1.73565 -5.058796,2.56115 -0.761992,1.79915 -1.587487,3.45014 -2.434148,4.97413 2.01082,-0.71966 3.809973,-1.50283 5.418627,-2.30715 0.592661,-1.31233 1.164158,-2.70932 1.69332,-4.16981 0.127,-0.35983 0.254,-0.71966 0.380997,-1.05832 z m -13.419567,1.24882 c -1.312323,0.33867 -2.688146,0.65617 -4.127469,0.91016 -0.190498,0.0423 -0.380997,0.0635 -0.571496,0.0847 -0.804327,1.52399 -1.629821,2.89981 -2.455315,4.1698 1.206491,-0.127 2.434149,-0.29633 3.682973,-0.50799 0.402164,-0.0847 0.783161,-0.14817 1.164158,-0.23284 0.783161,-1.35465 1.566322,-2.81514 2.307149,-4.4238 z m 17.398871,0.0635 c -0.04233,0.10583 -0.08467,0.21167 -0.105833,0.3175 0.08467,-0.0635 0.169333,-0.127 0.275166,-0.1905 z m 0.338664,0.23283 c -0.190497,0.127 -0.359831,0.27517 -0.571495,0.40217 -0.04233,0.1905 -0.105833,0.35983 -0.169333,0.52916 -0.677328,1.86265 -1.396989,3.57714 -2.180151,5.16463 1.926154,-1.14299 3.450143,-2.24365 4.614299,-3.17498 -0.0635,-0.127 -0.126997,-0.23283 -0.190497,-0.35983 -0.105833,-0.23283 -0.169333,-0.52916 -0.02117,-0.76199 v 0 -0.0212 c 0.04233,-0.0423 0.105834,-0.0847 0.169334,-0.10583 0.16933,-0.10583 0.35983,-0.16933 0.550328,-0.16933 -0.0635,-0.0847 -0.148167,-0.14817 -0.211664,-0.1905 z m -0.846659,0.59267 c -1.460489,1.03715 -3.259642,2.13781 -5.39746,3.21731 -0.910161,1.96848 -1.862653,3.74647 -2.857479,5.35512 2.243649,-0.93132 4.190969,-1.90498 5.884289,-2.89981 0.804328,-1.65099 1.587489,-3.45014 2.285984,-5.39746 0.04233,-0.0847 0.0635,-0.16933 0.08467,-0.27516 z m -21.843839,0.14816 c -1.566321,0.254 -3.069144,0.4445 -4.508466,0.55033 l 1.566321,3.66181 c 0.169333,-0.0212 0.338665,-0.0423 0.48683,-0.0423 0.846661,-1.26999 1.650988,-2.64581 2.455315,-4.1698 z m 13.059736,0.40217 c -1.545156,0.65616 -3.238476,1.26999 -5.058795,1.84148 -0.867827,1.69332 -1.777987,3.25964 -2.688147,4.65664 1.88382,-0.4445 3.661806,-0.97367 5.291628,-1.54516 0.846661,-1.52399 1.672153,-3.17498 2.455314,-4.95296 z m 11.916746,0.46566 c -0.1905,0 -0.402164,0.0635 -0.571497,0.16933 v 0 0 c -0.04233,0.0212 -0.08466,0.0423 -0.126997,0.0847 -0.105834,0.1905 -0.0635,0.42333 0.02117,0.63499 v 0 c 0.0635,0.127 0.126998,0.23283 0.190498,0.33867 0.275164,-0.21167 0.529164,-0.42333 0.761994,-0.635 -0.127,-0.33866 -0.253997,-0.5715 -0.253997,-0.5715 0,0 -0.02117,0 -0.02117,-0.0212 z m 0.359831,0.80433 c -0.232833,0.1905 -0.486831,0.38099 -0.740828,0.59266 0.04233,0.10583 0.105833,0.1905 0.169331,0.27516 0.08467,0.14817 0.127,0.29633 0.169333,0.4445 0.169331,-0.381 0.317497,-0.76199 0.444497,-1.14299 -0.02117,-0.0635 -0.02117,-0.127 -0.04233,-0.16933 z m 0.126997,0.50799 c -0.148164,0.40217 -0.29633,0.78316 -0.444494,1.16416 0,0.0212 0,0.0423 0,0.0635 0.0635,0.5715 0.126997,1.14299 0.16933,1.71449 0.02117,0.29633 0.08467,0.59266 -0.02117,0.91016 0,0 0,0.0212 0,0.0212 0,0 0,0 0,0 0.127,-0.35983 0.211666,-0.71966 0.275164,-1.05832 0.232833,-1.16416 0.169333,-2.11665 0.02117,-2.81515 z m -17.716367,0.14817 c -1.566322,0.46566 -3.21731,0.88899 -4.995296,1.24882 -0.931327,1.58749 -1.904986,3.02681 -2.857479,4.31797 0.761994,-0.0847 1.523988,-0.21167 2.285983,-0.33866 0.994826,-0.16934 1.926152,-0.381 2.857479,-0.59267 0.91016,-1.39699 1.820319,-2.94214 2.709313,-4.63546 z m 16.742709,0.0212 c -1.227656,0.97367 -2.836313,2.13782 -4.868297,3.32315 -0.867828,1.75682 -1.777986,3.32314 -2.688148,4.78363 0.169334,-0.0847 0.359831,-0.10583 0.550331,-0.0423 0.169331,0.0423 0.317497,0.14816 0.423331,0.27516 1.037158,-0.508 1.968484,-1.03716 2.836312,-1.56632 0.04233,-0.16933 0.08466,-0.35983 0.126997,-0.52916 v -0.0212 c 0.105833,-0.29633 0.232833,-0.55033 0.359831,-0.8255 0.08467,-0.23283 0.127,-0.50799 0.275164,-0.74082 v 0 h 0.02117 c 0.148167,-0.16933 0.402164,-0.1905 0.592664,-0.0847 v 0 c 0.211664,0.14817 0.275164,0.40216 0.359831,0.5715 v 0.0212 0 c 0.04233,0.14817 0.148164,0.23283 0.275164,0.27517 0.740828,-1.41816 1.46049,-2.96331 2.116651,-4.59313 -0.04233,-0.21167 -0.127,-0.40217 -0.232831,-0.59267 v 0 c -0.04233,-0.0847 -0.105833,-0.16933 -0.148166,-0.254 z m -8.339606,0.86783 c -1.608654,0.80433 -3.407807,1.58749 -5.418624,2.28598 -1.037159,1.84149 -2.116652,3.49248 -3.174978,4.95297 2.074319,-0.5715 3.979303,-1.22766 5.714959,-1.92615 0.994825,-1.58749 1.968484,-3.34431 2.878643,-5.3128 z m 8.762936,0.381 c -0.571494,1.41816 -1.185325,2.75165 -1.841486,4.02164 0.740828,-0.508 1.354656,-0.99483 1.926153,-1.43933 0.02117,-0.0635 0.04233,-0.127 0.0635,-0.1905 v 0 0 c 0.08466,-0.27516 0.02117,-0.57149 0,-0.86782 -0.04233,-0.508 -0.08467,-1.016 -0.148167,-1.52399 z m -22.415334,0.0212 c -0.317497,0.0635 -0.634995,0.12699 -0.973659,0.19049 -1.33349,0.23284 -2.603481,0.40217 -3.852305,0.55033 -0.105832,0.14817 -0.232831,0.3175 -0.338664,0.48683 l 1.39699,3.19615 c 0.296331,-0.0212 0.592662,-0.0635 0.888993,-0.10584 0.952493,-1.29115 1.926153,-2.70931 2.878645,-4.31796 z m -5.079962,0.76199 c -0.08467,0 -0.190498,0.0212 -0.275164,0.0212 l 0.105832,0.23283 c 0.0635,-0.0847 0.105833,-0.16933 0.169332,-0.254 z m 13.038569,1.22766 c -1.650987,0.57149 -3.407807,1.10066 -5.312793,1.54515 -1.142991,1.71449 -2.285983,3.21731 -3.386641,4.52964 0.35983,-0.0635 0.740827,-0.127 1.121825,-0.1905 1.545155,-0.27517 2.984478,-0.59267 4.381467,-0.9525 1.058326,-1.46049 2.137817,-3.09031 3.196142,-4.93179 z m 8.847603,0.23283 c -1.693323,0.97366 -3.64064,1.94732 -5.884291,2.85748 -1.269989,2.05315 -2.582315,3.80997 -3.809971,5.31279 2.285982,-0.69849 4.360302,-1.48165 6.201786,-2.30715 0.04233,-0.27516 0.232833,-0.50799 0.402164,-0.67733 h 0.02117 v 0 c 0.08467,-0.0847 0.169333,-0.16933 0.254,-0.25399 0.952492,-1.48166 1.904984,-3.11148 2.815145,-4.9318 z m 5.757291,0.55033 c 0,0 0,0 0,0 -0.0635,0.16933 -0.127,0.3175 -0.1905,0.46566 v 0 0 c 0,0.0212 -0.02117,0.0423 -0.02117,0.0847 0.0635,-0.1905 0.148167,-0.381 0.211667,-0.55033 z m -0.1905,0.14817 c -0.529161,0.42332 -1.121825,0.84665 -1.777987,1.31232 0.253998,0 0.507998,-0.0423 0.761995,-0.10584 v 0 c 0.211664,-0.0212 0.423331,-0.0847 0.550328,-0.23283 v -0.0212 c 0.169333,-0.16934 0.232833,-0.4445 0.359831,-0.6985 v 0.0212 c 0.02117,-0.10583 0.0635,-0.1905 0.105833,-0.27516 z m -3.047976,0.44449 c -0.08467,0.0212 -0.148167,0.0423 -0.211667,0.10583 -0.126997,0.1905 -0.169331,0.4445 -0.275164,0.6985 -0.105833,0.27516 -0.253997,0.55033 -0.338664,0.82549 v 0 c -0.04233,0.14817 -0.0635,0.27517 -0.105833,0.42333 0.634994,-0.38099 1.227658,-0.76199 1.777986,-1.14299 -0.148164,-0.0635 -0.253997,-0.1905 -0.29633,-0.35983 v 0.0212 c -0.08467,-0.21167 -0.148167,-0.42333 -0.317498,-0.508 -0.0635,-0.0423 -0.148166,-0.0635 -0.23283,-0.0635 z m -16.954375,0.23283 c -0.846661,0.1905 -1.735654,0.35983 -2.645814,0.52916 -0.84666,0.14817 -1.672154,0.27517 -2.497648,0.381 -0.211665,0.27517 -0.402164,0.55033 -0.613829,0.80433 l 1.26999,2.94215 c 0.359831,-0.0423 0.698495,-0.0847 1.058326,-0.14817 1.121825,-1.29116 2.264816,-2.79398 3.428975,-4.50847 z m 19.748354,0.21167 c -0.04233,0.0635 -0.0635,0.10583 -0.127,0.14816 -0.148164,0.1905 -0.380998,0.254 -0.592662,0.29633 -0.29633,0.0635 -0.592664,0.10584 -0.867828,0.10584 -0.04233,0 -0.08467,0 -0.105831,-0.0212 -0.02117,0.0212 -0.02117,0.0212 -0.04233,0.0212 -1.227659,2.39181 -2.539981,4.46613 -3.83114,6.26528 2.942145,-2.58231 4.635466,-4.86829 5.566794,-6.81561 z m -25.166981,0.74083 c -0.211665,0.0212 -0.42333,0.0423 -0.634995,0.0635 l 0.211665,0.50799 c 0.148165,-0.1905 0.275165,-0.381 0.42333,-0.57149 z m 23.092663,0.0423 c -0.529164,0.35983 -1.100659,0.71966 -1.714489,1.07949 -0.02117,0.16933 -0.0635,0.3175 -0.08466,0.48683 -0.0635,0.35983 -0.127,0.71966 -0.211667,1.07949 v 0 0 c -0.0635,0.254 -0.148164,0.508 -0.253997,0.762 v 0 0 c -0.127,0.23283 -0.275164,0.48683 -0.444498,0.69849 v 0 c -0.190497,0.23283 -0.507994,0.3175 -0.783161,0.1905 -0.253997,-0.14817 -0.380997,-0.42333 -0.529161,-0.63499 v 0 c -0.1905,-0.3175 -0.402164,-0.635 -0.592662,-0.97367 -0.61383,0.3175 -1.227658,0.61383 -1.88382,0.91017 -0.04233,0.0635 -0.08467,0.12699 -0.127,0.16933 0,0.21166 0.02117,0.42333 0.04233,0.63499 v 0 c 0.0635,0.5715 0.127,1.14299 0.190497,1.71449 0.04233,0.29633 0.08467,0.61383 0.105833,0.91016 0.02117,0.127 0.02117,0.254 -0.02117,0.381 -0.02117,0.0847 -0.08467,0.14816 -0.148164,0.21166 0.825492,-0.35983 1.62982,-0.74083 2.370648,-1.12182 1.375822,-1.84149 2.772812,-4.00047 4.085137,-6.49812 z m -9.440264,0.61383 c -1.75682,0.67732 -3.661807,1.33349 -5.736124,1.88382 -1.439323,1.92615 -2.836313,3.51364 -4.106303,4.76246 0.105832,-0.0212 0.211665,-0.0212 0.317497,-0.0423 2.031985,-0.35983 3.915805,-0.80433 5.672626,-1.33349 1.248822,-1.48166 2.561148,-3.23848 3.852304,-5.27046 z m 7.577611,0.57149 c -0.804328,0.48683 -1.69332,0.97366 -2.645815,1.46049 0.1905,0.3175 0.402164,0.635 0.592664,0.9525 v 0 c 0.148164,0.21166 0.253997,0.46566 0.486828,0.59266 v 0 c 0.211667,0.10583 0.465664,0.0212 0.613828,-0.14817 0.169333,-0.23283 0.3175,-0.46566 0.444497,-0.69849 0.105834,-0.23284 0.1905,-0.48683 0.254,-0.74083 0.0635,-0.33866 0.126998,-0.69849 0.190498,-1.05833 0.02117,-0.127 0.04233,-0.254 0.0635,-0.35983 z M 87.9362,121.6516 c -0.148164,0 -0.296331,0.0423 -0.423331,0.127 -0.02117,0.0212 -0.0635,0.0423 -0.08466,0.0635 -0.1905,0.27516 -0.35983,0.55033 -0.529164,0.80433 0.529164,-0.23284 1.037159,-0.48683 1.545156,-0.74083 -0.105833,-0.10583 -0.211666,-0.1905 -0.35983,-0.23283 v 0 0 c -0.04233,0 -0.08467,-0.0212 -0.148167,-0.0212 z m -10.24459,0.29633 c -1.312324,0.33867 -2.688147,0.635 -4.127469,0.889 -0.465664,0.0847 -0.931327,0.16933 -1.375823,0.23283 -0.253999,0.29633 -0.529163,0.59266 -0.761995,0.86782 l 1.248824,2.89982 c 0.296331,-0.0423 0.592663,-0.10584 0.91016,-0.14817 1.248824,-1.24882 2.66698,-2.81515 4.106303,-4.7413 z m 9.080434,0.52916 c -0.04233,0.0423 -0.0635,0.10584 -0.08467,0.14817 0.02117,-0.0423 0.04233,-0.10583 0.08467,-0.14817 z m -14.880058,0.635 c -0.275164,0.0423 -0.529162,0.0635 -0.78316,0.10583 l 0.211665,0.52917 c 0.190498,-0.21167 0.380997,-0.42333 0.571495,-0.635 z m 14.435561,0.0212 c -1.883821,0.82549 -3.979305,1.62982 -6.328786,2.30715 -1.820321,2.15898 -3.492475,3.74647 -4.783633,4.80479 0.169332,0.0423 0.338665,0.0847 0.507997,0.127 0.931326,-0.16933 1.841486,-0.38099 2.709313,-0.59266 0,-0.0212 0.02117,-0.0212 0.02117,-0.0423 0.190498,-0.35983 0.338664,-0.71966 0.507996,-1.07949 0.126999,-0.254 0.211665,-0.55033 0.338664,-0.84667 0.148166,-0.42333 0.296331,-0.84665 0.465663,-1.26998 v 0 c 0.08467,-0.27517 0.29633,-0.52917 0.613828,-0.59267 v 0 0 c 0.296333,-0.0423 0.55033,0.10583 0.761994,0.27517 v 0 0 c 0.507998,0.52916 0.994828,1.03716 1.502823,1.56632 1.164159,-1.29116 2.434148,-2.83631 3.682974,-4.65663 z m 0.10583,0.16933 c -1.248823,1.79915 -2.497648,3.34431 -3.661804,4.63546 0.02117,0 0.04233,0.0212 0.04233,0.0423 0.148164,0.127 0.275164,0.27516 0.423328,0.381 0.423331,-0.14817 0.846662,-0.3175 1.248826,-0.46567 0,0 0,0 0,0 0.190497,-0.254 0.380997,-0.48683 0.571494,-0.74083 0.169334,-0.21166 0.444498,-0.33866 0.719662,-0.29633 0.148166,0 0.275166,0.0635 0.423331,0.0847 0.127,0.0212 0.253997,0.0423 0.35983,0 0.105834,-0.0423 0.169334,-0.127 0.1905,-0.21167 0.04233,-0.10583 0.04233,-0.21166 0.02117,-0.31749 -0.02117,-0.3175 -0.0635,-0.61383 -0.105833,-0.93133 -0.0635,-0.55033 -0.127,-1.12183 -0.1905,-1.69332 v 0 c 0,-0.16933 -0.02117,-0.3175 -0.04233,-0.48683 z m -6.773281,2.22248 c -1.672155,0.48683 -3.471308,0.91016 -5.39746,1.24883 -0.190499,0.0423 -0.402164,0.0635 -0.592663,0.10583 -0.232831,0.23283 -0.465663,0.4445 -0.698495,0.65616 l 0.931327,2.15899 c 0.0635,0.14816 0.148165,0.27516 0.275164,0.35983 0,0 0.148166,0.127 0.359831,0.27516 0.105833,-0.127 0.296331,-0.1905 0.444497,-0.14816 1.248824,-1.016 2.899812,-2.56115 4.677799,-4.65664 z m 0.740826,0.55033 c -0.253997,0.0423 -0.444494,0.27517 -0.507994,0.508 v 0 0 c -0.169333,0.42333 -0.317499,0.84666 -0.486831,1.26999 -0.105832,0.29633 -0.190498,0.57149 -0.317497,0.86783 -0.169332,0.33866 -0.317498,0.67732 -0.48683,1.01599 1.037159,-0.254 2.053152,-0.55033 3.005644,-0.84666 0.317498,-0.3175 0.634995,-0.65616 0.952492,-1.016 -0.507994,-0.50799 -0.994825,-1.03715 -1.50282,-1.56632 -0.1905,-0.14816 -0.42333,-0.254 -0.656164,-0.23283 z m 8.170275,0.27517 c -1.248825,0.61383 -2.624648,1.20649 -4.106304,1.75682 -0.127,0.16933 -0.232831,0.31749 -0.423331,0.42333 -0.190497,0.10583 -0.444497,0.127 -0.656161,0.0635 v 0 c -0.02117,-0.0212 -0.04233,-0.0423 -0.08467,-0.0635 -0.507994,0.1905 -1.037158,0.35983 -1.587486,0.52916 -0.761995,0.78316 -1.46049,1.46049 -2.095486,2.01082 2.285983,-0.40217 5.249295,-1.69332 8.953435,-4.72013 z m -15.239888,0.57149 c -0.190499,0.0423 -0.380997,0.0847 -0.571496,0.10583 l 0.126999,0.3175 c 0.148166,-0.127 0.296332,-0.27516 0.444497,-0.42333 z m 12.42474,0.0635 c -0.211664,-0.0423 -0.444495,0.0635 -0.592661,0.254 v 0 0 c -0.169331,0.1905 -0.317498,0.381 -0.465664,0.57149 0.61383,-0.23283 1.227658,-0.48682 1.799153,-0.71966 -0.126997,0 -0.23283,0 -0.338664,-0.0212 -0.126997,-0.0423 -0.275164,-0.0847 -0.402164,-0.0847 z m -3.069143,1.03716 c -0.23283,0.254 -0.465664,0.508 -0.677328,0.74083 0.359831,-0.10583 0.719662,-0.23283 1.079492,-0.35983 -0.127,-0.10583 -0.23283,-0.23283 -0.35983,-0.33867 v 0 c 0,-0.0212 -0.02117,-0.0212 -0.04233,-0.0423 z m 1.545156,0.16933 c -0.254,0.10584 -0.507997,0.1905 -0.761994,0.29633 0.16933,0.0423 0.35983,0.0212 0.507994,-0.0635 v 0 c 0.105834,-0.0635 0.169334,-0.12699 0.254,-0.23283 z m -2.920978,0.99483 c -0.910162,0.27516 -1.862654,0.55033 -2.85748,0.78316 -0.105832,0.1905 -0.211665,0.35983 -0.338664,0.55033 v 0 c -0.148165,0.16933 -0.35983,0.3175 -0.592662,0.33866 v 0 c -0.275165,0.0212 -0.529163,-0.0635 -0.761994,-0.10583 v 0 c -0.296332,-0.0635 -0.592663,-0.14817 -0.888994,-0.21166 -0.232831,0.0423 -0.465663,0.0847 -0.698495,0.12699 0.02117,0.0212 0.04233,0.0423 0.08467,0.0423 0.656162,0.29633 1.629822,0.55033 2.878646,0.50799 0.338664,0 0.719661,-0.0423 1.121825,-0.0847 0.613829,-0.52917 1.312324,-1.18533 2.053152,-1.94732 z m -3.026812,0.82549 c -0.677328,0.16934 -1.396989,0.3175 -2.116651,0.46567 0.211665,0.0423 0.402164,0.10583 0.613829,0.14816 v 0 c 0.253998,0.0635 0.48683,0.127 0.719661,0.10583 0.190499,-0.0212 0.380998,-0.14816 0.507997,-0.29633 0,0 0,0 0,0 0,0 0,0 0,0 0.105832,-0.127 0.190498,-0.27516 0.275164,-0.42333 z m -3.428974,0.29633 c -0.08467,0 -0.148166,0.0212 -0.211665,0.0847 0.02117,0.0212 0.02117,0.0212 0.0635,0.0423 0.04233,-0.0423 0.105833,-0.0847 0.148166,-0.127 z m 0.253998,0.0423 c -0.0635,0.0635 -0.148166,0.127 -0.211665,0.16933 0,0 0.02117,0 0.04233,0 0.169332,-0.0212 0.317497,-0.0635 0.486829,-0.0847 -0.105832,-0.0423 -0.211665,-0.0635 -0.317497,-0.0847 z"
         style="fill:#000000;fill-opacity:1;fill-rule:evenodd;stroke:none;stroke-width:0.26458332"
         inkscape:connector-curvature="0" />
      <path
         id="path1640"
         d="m 95.661978,111.97847 c -0.232834,-0.0212 -0.444498,0.0423 -0.656164,0.14816 -0.04233,0.0212 -0.105831,0.0635 -0.148164,0.10583 -0.127,0.23284 -0.0635,0.48683 0.04233,0.6985 0.105831,0.29633 0.296331,0.55033 0.444497,0.80433 0.148164,0.25399 0.232831,0.52916 0.253998,0.82549 0.0635,0.5715 0.126997,1.14299 0.16933,1.71449 0.02117,0.29633 0.08467,0.59266 -0.02117,0.88899 -0.0635,0.27517 -0.190498,0.55033 -0.296331,0.8255 -0.105831,0.23283 -0.169331,0.50799 -0.359831,0.69849 -0.148164,0.16933 -0.35983,0.23283 -0.571494,0.27516 -0.275164,0.0635 -0.571498,0.10584 -0.846662,0.10584 -0.253997,0 -0.529161,-0.127 -0.613828,-0.381 -0.08467,-0.1905 -0.127,-0.42333 -0.317497,-0.55033 -0.169334,-0.0847 -0.402164,-0.0635 -0.529164,0.0635 -0.148164,0.21167 -0.190498,0.46566 -0.296331,0.71966 -0.105833,0.27517 -0.253997,0.55033 -0.338664,0.8255 -0.105833,0.38099 -0.190497,0.78316 -0.253997,1.18532 -0.0635,0.33867 -0.127,0.6985 -0.1905,1.05833 -0.08466,0.25399 -0.148164,0.50799 -0.253998,0.74082 -0.148166,0.254 -0.29633,0.48683 -0.465664,0.71966 -0.148164,0.1905 -0.444494,0.27517 -0.677328,0.14817 -0.253997,-0.127 -0.380997,-0.381 -0.529161,-0.61383 -0.1905,-0.3175 -0.402164,-0.65616 -0.613831,-0.97366 -0.10583,-0.16933 -0.275164,-0.3175 -0.486828,-0.38099 -0.211666,-0.0847 -0.444497,-0.0212 -0.613828,0.0847 -0.211666,0.14817 -0.402164,0.33866 -0.571497,0.508 -0.190497,0.19049 -0.380997,0.40216 -0.402164,0.67733 -0.04233,0.29633 0,0.59266 0.02117,0.86782 0.0635,0.5715 0.127,1.14299 0.1905,1.71449 0.04233,0.3175 0.08466,0.61383 0.10583,0.93133 0.04233,0.21166 -0.02117,0.48683 -0.253997,0.59266 -0.253997,0.0847 -0.529162,-0.0635 -0.804328,-0.0847 -0.253998,-0.0423 -0.507995,0.0847 -0.656162,0.27517 -0.211664,0.23283 -0.402164,0.48683 -0.592661,0.74082 -0.148167,0.1905 -0.296331,0.40217 -0.529164,0.52917 -0.169331,0.10583 -0.380997,0.127 -0.592661,0.0635 -0.253998,-0.10584 -0.444498,-0.3175 -0.634995,-0.508 -0.550331,-0.59266 -1.121825,-1.16416 -1.672156,-1.75682 -0.211664,-0.14817 -0.444495,-0.29633 -0.719661,-0.254 -0.275164,0.0423 -0.465662,0.29633 -0.550328,0.55033 -0.169332,0.42333 -0.317498,0.84666 -0.48683,1.26999 -0.105833,0.29633 -0.190499,0.5715 -0.317498,0.86783 -0.169332,0.35983 -0.338664,0.71966 -0.507996,1.05833 -0.148166,0.25399 -0.296331,0.48682 -0.465663,0.71966 -0.126999,0.16933 -0.317498,0.29633 -0.55033,0.31749 -0.253998,0.0212 -0.486829,-0.0423 -0.740827,-0.10583 -0.571496,-0.127 -1.142992,-0.27516 -1.735654,-0.42333 -0.169332,-0.0847 -0.380997,0 -0.48683,0.14817 -0.126999,0.14816 -0.04233,0.35983 0,0.52916 0.105833,0.3175 0.232832,0.635 0.359831,0.95249 0.148165,0.42333 0.296331,0.82549 0.465663,1.22766 0.0635,0.16933 0.148166,0.35983 0.232831,0.55033 0,0 0,0 0,0 0,0 0.02117,-0.0423 0.02117,-0.0423 0,0 0.08467,0 0.08467,0 v 0 0 c 1.460489,0.27516 2.920979,0.50799 4.381467,0.69849 0.211667,-0.46566 0.465664,-1.24882 0.634995,-1.69332 0.04233,-0.508 0.105833,-1.03716 0.296333,-1.52399 0.169331,-0.16933 0.402164,-0.254 0.634995,-0.29633 0.338664,0.0423 0.677328,0.10583 1.015992,0.14816 0.719661,0.0635 1.439322,0.33867 2.158984,0.14817 1.354656,-0.40216 2.751645,-0.74083 3.958137,-1.52399 0.338664,-0.52916 0.592662,-1.07949 0.867826,-1.62982 0.169333,-0.29633 0.275166,-0.65616 0.592664,-0.82549 0.35983,-0.16933 0.761994,-0.27517 1.164158,-0.381 0.465662,-0.14816 1.015992,-0.27516 1.312323,-0.71966 0.148164,-0.27517 0.190497,-0.59266 0.296331,-0.91016 0.148166,-0.65616 0.656161,-1.12183 1.121825,-1.58749 0.338664,-0.40216 0.783162,-0.67733 1.26999,-0.88899 0.48683,-0.1905 0.740828,-0.67733 0.952494,-1.14299 0.126998,-0.29633 0.275164,-0.65617 0.634995,-0.74083 0.232831,0 0.550328,-0.0423 0.656161,-0.29633 0,-0.3175 0,-0.635 0.02117,-0.97366 -0.04233,-0.65617 0.296331,-1.26999 0.634995,-1.82032 0.105833,-0.23283 0.380997,-0.381 0.634994,-0.381 0.169334,0 0.3175,0.0635 0.423331,0.16933 0.910169,1.12183 1.820329,2.22249 2.645819,3.38664 0.82549,1.16416 1.60865,2.39182 1.98965,3.78881 0.35983,1.43932 0.21167,2.92098 0.0635,4.38147 -0.16933,1.62982 -0.35983,3.51364 -0.84666,5.10113 0.78316,-0.127 1.54516,-0.254 2.32832,-0.381 v 0 h 0.0212 c 0,0 0.0212,0 0.0423,0 0.10583,-0.29633 0.21166,-0.5715 0.29633,-0.84666 0.16933,-0.508 0.31749,-1.01599 0.44449,-1.52399 0.0635,-0.381 0.127,-0.762 0.1905,-1.16416 0.0423,-0.33866 0.0635,-0.67733 0.10584,-1.01599 0.0212,-0.33867 0.0423,-0.6985 0.0423,-1.03716 0,-0.3175 0,-0.635 -0.0212,-0.95249 -0.0212,-0.35983 -0.0423,-0.74083 -0.0847,-1.10066 -0.0423,-0.40217 -0.10584,-0.78316 -0.1905,-1.16416 -0.0423,-0.3175 -0.127,-0.65616 -0.21167,-0.97366 -0.10583,-0.4445 -0.254,-0.88899 -0.40216,-1.33349 -0.1905,-0.508 -0.381,-1.01599 -0.61383,-1.50282 -0.14817,-0.3175 -0.3175,-0.635 -0.48683,-0.95249 -0.1905,-0.381 -0.42333,-0.71966 -0.65616,-1.0795 -0.14817,-0.23283 -0.3175,-0.46566 -0.46566,-0.67732 -0.254,-0.35983 -0.52917,-0.67733 -0.80433,-1.016 -0.254,-0.29633 -0.508,-0.57149 -0.78316,-0.84666 -0.3175,-0.33866 -0.65616,-0.65616 -1.016,-0.95249 -0.44449,-0.381 -0.88899,-0.74083 -1.375822,-1.10066 -0.994828,-0.71966 -1.989654,-1.41816 -3.005646,-2.09548 -0.23283,-0.14817 -0.444497,-0.27517 -0.677328,-0.381 -0.08467,-0.0423 -0.148166,-0.0423 -0.23283,-0.0423 z m -2.730482,12.5729 c 0,0.0212 -0.04233,0.10584 -0.02117,0.0212 0.02117,-0.0212 0.02117,-0.0212 0.02117,-0.0212 z m -0.507995,1.16416 c 0,0.0212 -0.02117,0.0847 -0.02117,0.0212 0.02117,-0.0212 0.02117,-0.0212 0.02117,-0.0212 z"
         style="fill:#00000f;fill-opacity:1;fill-rule:nonzero;stroke:none;stroke-width:0.26458332"
         inkscape:connector-curvature="0" />
      <path
         id="path1642"
         d="m 75.680792,133.73764 c -0.02117,0 -0.465664,3.7253 1.185324,6.20178 2.031985,3.02682 6.053621,4.84714 12.48824,4.29681 5.566794,-0.46567 2.243651,-1.96849 5.799624,-3.11148 3.026812,-0.97366 7.34478,3.19614 10.18109,3.40781 5.99012,0.40216 7.97978,-2.70932 8.00094,-3.66181 0.0635,-1.71449 -5.60912,-1.82032 -5.92662,-2.22248 -0.29633,-0.381 -0.21167,-0.889 0.84666,-1.22766 2.05315,-0.67733 9.05927,1.24883 8.99577,-1.73565 -0.0212,-1.31233 -8.8476,-1.82032 -11.68392,-1.82032 -10.22342,1.79915 -20.192848,1.75682 -29.887108,-0.127 z m 34.755408,1.35466 c 0.4445,0 0.84666,0.23283 0.91016,0.86782 0.14816,1.41816 -2.24365,0.86783 -2.18015,0.0212 0.0423,-0.46566 0.67733,-0.88899 1.26999,-0.88899 z m -3.9158,0.0423 c 1.12182,0 2.03198,0.23283 2.01082,0.97366 -0.0423,1.73565 -3.36548,0.69849 -4.95297,1.05832 -0.33866,0.0212 -0.71966,0.16934 -0.95249,0.4445 -0.35983,0.35983 -0.48683,0.97366 -0.1905,1.41816 0.86783,0.91015 2.87865,1.07949 2.87865,2.60348 0,1.50282 -2.22249,0.76199 -3.57714,0.35983 -1.35466,-0.381 -2.836316,-1.29116 -4.275639,-1.94732 -0.867828,-0.381 -1.75682,-0.78316 -2.709315,-0.93133 -0.507994,-0.0847 -1.015992,-0.0423 -1.481656,0.127 -1.100659,0.42333 -2.137817,0.91016 -3.174976,1.43932 -0.973659,0.508 -1.883817,1.05833 -2.878645,1.48166 -0.761995,0.35983 -1.566321,0.57149 -2.391815,0.55033 -0.867828,-0.0423 -1.735654,-0.0635 -2.539982,-0.33867 -0.677328,-0.27516 -1.227656,-0.76199 -1.650986,-1.33349 -0.444498,-0.65616 -0.634995,-1.41815 -0.825495,-2.18015 -0.04233,-0.12699 -0.0635,-0.27516 -0.105833,-0.40216 1.693322,0.5715 4.444968,0.16933 3.93697,-1.39699 -0.211664,-0.61383 -0.698494,-1.01599 -1.312322,-1.22766 0.211664,-0.0212 0.42333,-0.0423 0.613828,-0.0635 4.106304,0.40217 8.170272,0.61383 12.297743,0.4445 0.04233,1.18532 3.365473,1.71449 4.127468,0.33866 0.08467,-0.254 0.02117,-0.46566 -0.148164,-0.63499 1.185319,-0.127 2.370649,-0.27517 3.577139,-0.46566 0.55033,0 2.30715,-0.33867 3.72531,-0.3175 z m 5.96895,0.16933 c 0.52916,0 1.18533,0.93133 0.40216,1.31232 -0.82549,0.42333 -1.01599,-1.16415 -0.48682,-1.29115 0.0212,-0.0212 0.0635,-0.0212 0.0847,-0.0212 z m -8.93226,2.47648 c 0.19049,0.0212 0.38099,0.23283 0.38099,0.67733 -0.0423,0.86783 -1.01599,0.52916 -0.88899,-0.16933 0.0635,-0.35983 0.29633,-0.52917 0.508,-0.508 z m 4.88946,3.38664 c 0.67733,0.0423 1.29115,0.46567 1.22765,1.26999 -0.0847,1.62983 -3.23847,1.01599 -2.83631,-0.31749 0.21167,-0.67733 0.9525,-0.99483 1.60866,-0.9525 z"
         style="fill:#000000;fill-opacity:1;fill-rule:nonzero;stroke:none;stroke-width:0.26458332"
         inkscape:connector-curvature="0" />
      <path
         id="path1644"
         d="m 83.321901,139.1351 c -0.148164,0.52916 -0.825492,0.254 -0.698495,-0.254 0.04233,-0.1905 0.783162,-0.21166 0.698495,0.254 z"
         style="fill:#00000c;fill-opacity:1;fill-rule:nonzero;stroke:none;stroke-width:0.26458332"
         inkscape:connector-curvature="0" />
      <path
         id="path1646"
         d="m 84.126229,138.79643 c -0.867828,-0.35983 -0.08467,-1.18532 0.740828,-0.84666 0.338664,0.10584 0.0635,1.10066 -0.740828,0.84666 z"
         style="fill:#00000c;fill-opacity:1;fill-rule:nonzero;stroke:none;stroke-width:0.26458332"
         inkscape:connector-curvature="0" />
      <path
         id="path1648"
         d="m 99.069784,138.1826 c -0.48683,-0.25399 -0.16933,-0.82549 0.296331,-0.57149 0.169333,0.0635 0.148167,0.76199 -0.296331,0.57149 z"
         style="fill:#00000c;fill-opacity:1;fill-rule:nonzero;stroke:none;stroke-width:0.26458332"
         inkscape:connector-curvature="0" />
    </g>
  </g>
  <style
     id="style1521">
.MsftOfcThm_Background1_Fill {
 fill:#FFFFFF; 
}
</style>
  <style
     id="style2436">
.MsftOfcThm_Background1_Fill {
 fill:#FFFFFF; 
}
</style>
</svg>
